<?xml version="1.0" standalone="no"?>
<!DOCTYPE svg PUBLIC "-//W3C//DTD SVG 1.1//EN" "http://www.w3.org/Graphics/SVG/1.1/DTD/svg11.dtd" >
<svg xmlns="http://www.w3.org/2000/svg" xmlns:xlink="http://www.w3.org/1999/xlink" version="1.1">
<metadata>
Created by FontForge 20170731 at Fri Oct  8 20:14:55 1999
 By Aleksey,,,
Copyright (c) 1992, 1998 Adobe Systems Incorporated.  All Rights Reserved.Formata is either a registered trademark or trademark of Berthold Types Limited in the United States and/or other countries.
</metadata>
<defs>
<font id="Formata-LightCnSC" horiz-adv-x="417" >
  <font-face 
    font-family="Formata LightCnSC"
    font-weight="300"
    font-stretch="condensed"
    units-per-em="1000"
    panose-1="2 11 4 6 0 0 0 0 0 0"
    ascent="750"
    descent="-250"
    x-height="543"
    cap-height="708"
    bbox="-90 -250 1038 925"
    underline-thickness="50"
    underline-position="-200"
    unicode-range="U+0020-FB02"
  />
<missing-glyph horiz-adv-x="229" 
 />
    <glyph glyph-name=".notdef" horiz-adv-x="229" 
 />
    <glyph glyph-name=".null" horiz-adv-x="0" 
 />
    <glyph glyph-name="nonmarkingreturn" horiz-adv-x="333" 
 />
    <glyph glyph-name="space" unicode=" " horiz-adv-x="229" 
 />
    <glyph glyph-name="space" unicode="&#xa0;" horiz-adv-x="229" 
 />
    <glyph glyph-name="exclam" unicode="!" horiz-adv-x="208" 
d="M156 6l-7 -6q-27 0 -66 -3l-6 7q0 6 0.5 18t0.5 18t-0.5 18.5t-0.5 17.5l6 6q23 1 65 5l7 -6q-1 -39 1 -75zM143 194l-5 -6q-26 -2 -41 -4l-6 6q0 86 -6.5 261t-11.5 249l5 6q28 -1 71 2l5 -6q-2 -26 -2 -40q-10 -164 -10 -370q0 -28 0.5 -60t0.5 -38z" />
    <glyph glyph-name="quotedbl" unicode="&#x22;" horiz-adv-x="396" 
d="M336 700l-35 -255h-20l-32 242q0 3 -0.5 8.5t-0.5 7.5q0 24 14.5 35t31.5 11q10 0 17 -3q25 -11 25 -46zM148 700l-35 -255h-20l-32 242q0 3 -0.5 8.5t-0.5 7.5q0 24 14.5 35t31.5 11q10 0 17 -3q25 -11 25 -46z" />
    <glyph glyph-name="numbersign" unicode="#" horiz-adv-x="583" 
d="M563 313v-55h-175l-34 -258h-61l36 258h-101l-38 -258h-57l35 258h-167v55h174l14 97h-167v57h175l32 239h60l-33 -239h100l32 239h60l-32 -239h167v-57h-175l-13 -97h168zM235 313h101l13 97h-101z" />
    <glyph glyph-name="dollar" unicode="$" horiz-adv-x="333" 
d="M139 -82l-6 8v66q-59 4 -102 30l-7 12l3 27q2 18 2 25l15 4q42 -49 106 -49q52 0 75.5 29t23.5 61q0 22 -12.5 41t-25 28.5t-37.5 25.5l-43 25q-55 31 -79.5 59t-24.5 74q0 42 26.5 80t90.5 48q-1 34 -3 67l8 8q7 0 17.5 0.5t18.5 1.5l8 -8v-67q55 -3 91 -26l7 -12
l-6 -40l-13 -6q-43 35 -94 35q-43 0 -66 -22.5t-23 -54.5q0 -29 19 -48t61 -42t60.5 -34.5t41.5 -31.5t31.5 -42t8.5 -52q0 -60 -38 -99t-91 -45q0 -22 3 -67l-8 -7q-8 0 -38 -2z" />
    <glyph glyph-name="percent" unicode="%" horiz-adv-x="750" 
d="M288 427q0 -24 -1 -45t-8.5 -57.5t-20.5 -62t-39.5 -45t-62.5 -19.5q-60 0 -94 52q-38 61 -38 180q0 40 5.5 75.5t18.5 71.5t41 57t68 21q42 0 70.5 -24t40.5 -64t16 -72t4 -68zM158 237q46 0 65 62q14 49 14 126q0 81 -16 134q-21 58 -65 58q-31 0 -49 -27
q-31 -43 -31 -159q0 -80 16 -132q18 -62 66 -62zM725 221q0 -24 -1.5 -46t-9 -58t-20 -61.5t-39 -44.5t-62.5 -19q-58 0 -93 52q-38 61 -38 180q0 40 5.5 75.5t18.5 71.5t41 57t68 21q42 0 70 -24t40 -64t16 -72t4 -68zM596 31q45 0 64 62q14 49 14 126q0 81 -16 134
q-21 58 -64 58q-32 0 -49 -26q-31 -45 -31 -160q0 -80 16 -132q18 -62 66 -62zM409 351l-61 -155q-50 -128 -71 -190l-8 -6q-8 1 -19 1q-3 0 -11 -0.5t-12 -0.5l-4 7q42 92 109 260l42 106q65 167 100 269l8 6q22 -1 41 0l5 -7q-36 -80 -119 -290z" />
    <glyph glyph-name="ampersand" unicode="&#x26;" 
d="M390 187l-1 -10q0 -5 -4 -9q-19 -42 -46 -74q31 -42 68 -84l-6 -10q-8 1 -23 1q-3 0 -17 -1l-14 -1l-11 5q-11 15 -35 46q-68 -58 -137 -58q-62 0 -99 40t-37 96q0 37 16.5 66t35 44t58.5 41q-48 60 -48 123q0 53 33 83.5t82 30.5q50 0 79 -30.5t29 -78.5q0 -24 -7 -44
t-23.5 -37.5t-29.5 -28.5t-38 -28l44 -64l46 -64q29 36 41 85l14 2q15 -23 30 -41zM269 92l-101 145q-22 -15 -34.5 -25t-27 -33t-14.5 -50q0 -37 23.5 -63t58.5 -26q52 0 95 52zM186 311q34 23 52 45t18 55q0 26 -13.5 43t-38.5 17q-24 0 -40.5 -16.5t-16.5 -48.5
q0 -40 39 -95z" />
    <glyph glyph-name="quotesingle" unicode="'" horiz-adv-x="208" 
d="M148 700l-35 -255h-20l-32 242q0 3 -0.5 8.5t-0.5 7.5q0 24 14.5 35t31.5 11q10 0 17 -3q25 -11 25 -46z" />
    <glyph glyph-name="parenleft" unicode="(" horiz-adv-x="313" 
d="M276 -188l-9 4q-86 75 -146 190q-64 127 -64 259q0 142 66 277q56 110 129 177q14 13 24 17h34l3 -7q-78 -71 -130.5 -187t-52.5 -268q0 -160 65 -294q49 -98 118 -160l-3 -8h-34z" />
    <glyph glyph-name="parenright" unicode=")" horiz-adv-x="313" 
d="M37 736l9 -4q88 -77 146 -190q64 -127 64 -259q0 -77 -18 -150q-9 -35 -25 -76t-57.5 -110t-94.5 -118q-17 -14 -24 -17h-34l-3 7q78 71 130.5 186.5t52.5 268.5q0 161 -65 294q-49 98 -118 160l3 8h34z" />
    <glyph glyph-name="asterisk" unicode="*" horiz-adv-x="396" 
d="M46 656l9 2q71 -56 124 -87q-2 82 -12 158l5 5q28 0 49 2l5 -6q-8 -54 -10 -159q52 31 121 88l9 -1q10 -20 26 -42l-2 -8q-61 -26 -136 -71q57 -34 135 -68l2 -8q-11 -22 -22 -43l-8 -3q-55 45 -125 89q5 -88 13 -159l-6 -5q-27 0 -47 -2l-6 6q8 51 10 159
q-55 -35 -121 -88h-8q-20 33 -27 43l2 8q55 21 136 70q-64 37 -135 68l-3 7q12 24 22 45z" />
    <glyph glyph-name="plus" unicode="+" horiz-adv-x="500" 
d="M469 322v-60h-189v-190h-60v190h-190v60h190v187h60v-187h189z" />
    <glyph glyph-name="comma" unicode="," horiz-adv-x="187" 
d="M142 92l5 -6q-42 -108 -75 -219l-6 -6q-21 0 -39 -1l-4 6q29 132 41 217l6 5q30 1 72 4z" />
    <glyph glyph-name="hyphen" unicode="-" horiz-adv-x="250" 
d="M225 313l6 -6q-4 -33 -6 -49l-6 -6q-26 2 -108 2q-49 0 -87 -1l-6 6q5 26 7 48l6 5q34 -2 112 -2q51 0 82 3z" />
    <glyph glyph-name="hyphen" unicode="&#xad;" horiz-adv-x="250" 
d="M225 313l6 -6q-4 -33 -6 -49l-6 -6q-26 2 -108 2q-49 0 -87 -1l-6 6q5 26 7 48l6 5q34 -2 112 -2q51 0 82 3z" />
    <glyph glyph-name="period" unicode="." horiz-adv-x="187" 
d="M134 6l-7 -6q-27 0 -66 -3l-6 7q0 6 0.5 18t0.5 18t-0.5 18.5t-0.5 17.5l6 6q23 1 65 5l7 -6q-1 -39 1 -75z" />
    <glyph glyph-name="slash" unicode="/" horiz-adv-x="292" 
d="M184 412l-102 -345q-32 -110 -69 -248l-6 -7q-26 1 -51 0l-3 8q27 76 88 282l99 334q48 169 81 294l6 6q25 -1 51 0l3 -8q-30 -85 -97 -316z" />
    <glyph glyph-name="zero" unicode="0" horiz-adv-x="458" 
d="M424 275q0 -287 -197 -287q-110 0 -157 92q-36 72 -36 193q0 161 71 232q50 48 132 48q187 0 187 -278zM353 264q0 103 -19 159q-30 83 -103 83q-41 0 -71 -28q-54 -51 -54 -203q0 -240 123 -240q20 0 41 8q39 17 58 63q25 60 25 158z" />
    <glyph glyph-name="one" unicode="1" horiz-adv-x="271" 
d="M178 8l-6 -7q-10 0 -27 -0.5t-29 -1.5l-7 8q0 5 0.5 35t0.5 36v66v180q-2 139 -2 167q-14 -3 -28.5 -5.5t-24.5 -4t-25 -4.5l-8 7q1 9 1 39l7 8q30 6 70 10q41 6 67 12l8 -6q-2 -70 -2 -111v-90q0 -67 0.5 -121t1 -83t0.5 -35q0 -51 3 -99z" />
    <glyph glyph-name="two" unicode="2" horiz-adv-x="437" 
d="M403 8l-9 -8q-24 2 -95 2q-10 0 -67 0.5t-68 0.5h-42.5t-37.5 -0.5t-29 -1t-21 -0.5h-8l-4 9l99 91q115 104 158.5 160.5t43.5 115.5q0 53 -35.5 89t-93.5 36q-79 0 -136 -62l-10 4q2 44 2 54l6 10q66 46 146 46q87 0 137 -49t50 -126q0 -47 -20 -89.5t-43.5 -69
t-76.5 -77.5l-98 -90h139q7 0 52 1t54 1l8 -7q-1 -18 -1 -40z" />
    <glyph glyph-name="three" unicode="3" horiz-adv-x="396" 
d="M287 445l-101 -158q89 -2 131 -61t42 -137q0 -111 -76 -176.5t-187 -65.5q-39 0 -76 10l-6 9q1 12 3 40l9 6q37 -16 77 -16q78 0 135 52t57 140q0 70 -38.5 109.5t-96.5 39.5q-36 0 -76 -19l-9 9q22 32 96 148l73 115h-106q-14 0 -52 -1t-53 -1h-13l-6 8q2 19 2 39l8 8
q12 0 81 -0.5t82 -0.5h154l4 -9q-6 -10 -58 -88z" />
    <glyph glyph-name="four" unicode="4" horiz-adv-x="458" 
d="M380 50h-38v-61q0 -27 3 -127l-6 -7q-11 -1 -51 -2l-8 7q1 19 1 46q0 28 1 42v102h-136q-89 -1 -116 -1l-8 8q1 20 1 43l4 11q10 20 32 60l141 262q4 7 25 46.5t29 56.5l10 6q49 2 72 3l8 -8q0 -6 -2 -137v-299h40q37 0 53 1l8 -7q-2 -17 -3 -37l-10 -9q-25 0 -50 1z
M79 101h202v381z" />
    <glyph glyph-name="five" unicode="5" horiz-adv-x="396" 
d="M218 491h-94q-6 -120 -9 -208q29 12 65 12q88 0 135.5 -60t47.5 -146q0 -108 -73.5 -175t-183.5 -67q-39 0 -80 11l-6 9q2 12 3 23t2 15l9 6q35 -15 74 -15q84 0 137 52t53 140q0 70 -37 112.5t-99 42.5q-57 0 -105 -34l-10 6q11 171 14 321l6 7q11 0 77 -0.5t79 -0.5
q85 0 114 1l7 -8q-4 -17 -6 -39l-9 -7q-74 2 -111 2z" />
    <glyph glyph-name="six" unicode="6" horiz-adv-x="458" 
d="M381 636l-8 -5q-25 14 -64 14q-94 0 -149 -93q-20 -35 -32.5 -83.5t-16 -79.5t-2.5 -31q1 2 5 6q55 65 137 65q79 0 125 -63.5t46 -157.5q0 -25 -3.5 -49.5t-15.5 -57t-31.5 -56.5t-55.5 -40.5t-83 -16.5q-105 0 -153 96q-38 80 -38 220q0 83 15 150q28 123 101 186
q65 55 161 55q34 0 61 -9l7 -9q-3 -16 -6 -41zM359 203q0 75 -30 123.5t-87 48.5q-81 0 -135 -96q0 -128 41 -190q36 -54 94 -54q54 0 87 47q30 42 30 121z" />
    <glyph glyph-name="seven" unicode="7" horiz-adv-x="437" 
d="M171 -138l-8 -7q-11 0 -65 -2l-6 8q30 74 34 83q8 20 58 152.5t60 158.5l85 235h-182q-3 0 -51 -0.5t-67 -2.5l-8 9q1 10 4 38l9 8q42 -1 122 -1h245l7 -11q0 -2 -2 -5t-2 -4q-52 -134 -109 -294t-88 -252.5t-36 -112.5z" />
    <glyph glyph-name="eight" unicode="8" horiz-adv-x="458" 
d="M286 365q32 -21 49 -34.5t40.5 -38t34.5 -55t11 -67.5q0 -75 -51 -128.5t-144 -53.5q-88 0 -138 52.5t-50 133.5q0 42 13 75t37 55.5t41 34t43 24.5q-36 26 -55.5 43t-39.5 52.5t-20 77.5q0 73 49 119t128 46q76 0 123 -45.5t47 -122.5q0 -55 -28 -93.5t-90 -74.5z
M218 333q-115 -57 -115 -158q0 -62 35.5 -101t92.5 -39q53 0 88 35.5t35 90.5q0 50 -30 88t-106 84zM239 397q103 53 103 138q0 47 -30 83t-82 36q-42 0 -75 -29t-33 -78t30 -82t87 -68z" />
    <glyph glyph-name="nine" unicode="9" horiz-adv-x="458" 
d="M85 -99l9 6q28 -11 57 -11q86 0 139.5 78t58.5 208q1 6 1 18q-1 -1 -3 -3.5t-3 -3.5q-55 -73 -139 -73q-75 0 -123 56q-48 59 -48 159t50.5 159t139.5 59q109 0 156 -99q38 -80 38 -214q0 -139 -42 -236q-34 -75 -92 -116t-137 -41q-23 0 -61 7l-6 11q2 11 5 36zM216 176
q43 0 78 27.5t56 66.5q-1 27 -2.5 44t-5.5 49t-13 53t-22.5 43.5t-35.5 34t-51 11.5q-57 0 -88 -46q-30 -43 -30 -123q0 -78 32 -121q31 -39 82 -39z" />
    <glyph glyph-name="colon" unicode=":" horiz-adv-x="208" 
d="M155 6l-7 -6q-27 0 -66 -3l-6 7q0 6 0.5 18t0.5 18t-0.5 18.5t-0.5 17.5l6 6q23 1 65 5l7 -6q-1 -39 1 -75zM155 431l-7 -6q-24 0 -66 -3l-6 7q0 6 0.5 18t0.5 18t-0.5 18.5t-0.5 17.5l6 6q23 1 65 5l7 -6q-1 -39 1 -75z" />
    <glyph glyph-name="semicolon" unicode=";" horiz-adv-x="208" 
d="M163 92l4 -6q-43 -114 -74 -219l-7 -6q-20 0 -38 -1l-5 6q26 109 42 217l6 5q30 1 72 4zM167 431l-7 -6q-24 0 -66 -3l-6 7q0 6 0.5 18t0.5 18t-0.5 18.5t-0.5 17.5l6 6q23 1 65 5l7 -6q-1 -39 1 -75z" />
    <glyph glyph-name="less" unicode="&#x3c;" horiz-adv-x="500" 
d="M500 132v-64l-500 251v70l500 249v-64l-434 -220z" />
    <glyph glyph-name="equal" unicode="=" horiz-adv-x="500" 
d="M500 232v-59h-500v59h500zM500 408v-59h-500v59h500z" />
    <glyph glyph-name="greater" unicode="&#x3e;" horiz-adv-x="500" 
d="M500 319l-500 -251v64l434 222l-434 220v64l500 -249v-70z" />
    <glyph glyph-name="question" unicode="?" horiz-adv-x="313" 
d="M176 6l-7 -6q-27 0 -66 -3l-6 7q0 6 0.5 18t0.5 18t-0.5 18.5t-0.5 17.5l6 6q23 1 65 5l7 -6q-1 -39 1 -75zM159 185l-6 -6q-9 0 -21 -0.5t-22 -1.5l-7 6q-1 60 9.5 95t44.5 92q66 110 66 177q0 52 -30 88t-83 36q-49 0 -109 -41l-6 4q2 20 2 45l5 9q59 31 122 31
q77 0 117.5 -49.5t40.5 -117.5q0 -34 -11 -69.5t-21 -54.5t-28 -50l-17 -29q-28 -49 -37.5 -81.5t-8.5 -82.5z" />
    <glyph glyph-name="at" unicode="@" horiz-adv-x="896" 
d="M790 66l27 -32q-38 -36 -50 -45q-55 -45 -137 -79t-178 -34q-70 0 -135.5 21t-122.5 62t-91.5 112.5t-34.5 162.5q0 123 58.5 232t165.5 177.5t237 68.5q136 0 217 -77t81 -210q0 -136 -70.5 -244.5t-159.5 -108.5q-24 0 -42 11q-36 22 -36 82q-21 -27 -35.5 -42
t-47 -32.5t-69.5 -17.5q-19 0 -38.5 7t-40.5 23t-34 49.5t-13 80.5q0 111 63.5 196.5t145.5 85.5q35 0 64 -19q34 -22 55 -76l17 72h59l-33 -146q-29 -129 -29 -174q0 -21 8 -34t15 -15.5t13 -2.5q30 0 67 39.5t66 112.5t29 153q0 110 -68 176.5t-188 66.5q-111 0 -206 -60
t-150 -160.5t-55 -216.5q0 -142 95 -226.5t244 -84.5q111 0 221 59q56 30 116 87zM397 127q30 0 60 21t51 55q40 65 40 149q0 55 -27.5 82.5t-60.5 27.5q-46 0 -82 -38t-52.5 -88.5t-16.5 -98.5q0 -34 9.5 -57.5t25 -34t28.5 -14.5t25 -4z" />
    <glyph glyph-name="A" unicode="A" horiz-adv-x="479" 
d="M405 5l-27 115q-11 46 -30 115h-223l-10 -38q-33 -125 -47 -191l-7 -6q-30 1 -56 0l-5 6q1 2 2.5 7t2.5 7q38 128 62 215l81 290q21 71 50 175l6 6q3 0 71 2l6 -6q23 -87 46 -164l63 -222q29 -103 89 -309l-5 -6q-12 0 -31.5 -0.5t-30.5 -1.5zM234 648l-96 -361
q98 -1 195 0z" />
    <glyph glyph-name="B" unicode="B" horiz-adv-x="479" 
d="M63 700l6 6q91 2 93 2q53 1 70 1q52 0 86.5 -10t58.5 -39q36 -45 36 -118q0 -60 -27.5 -107.5t-92.5 -61.5q-2 -1 -6.5 -2t-6.5 -1h13q77 -6 114 -54t37 -119q0 -72 -36 -124q-33 -49 -82 -60.5t-157 -12.5q-40 0 -92 -2l-6 6q2 64 1 145q-2 55 -2 349q-3 120 -7 202z
M138 51h37q102 0 135 16q69 33 69 131q0 73 -43 109q-39 33 -143 33q-20 0 -60 -2q0 -92 5 -287zM133 389q64 -1 95 2q11 1 21.5 3t30.5 11.5t34.5 23.5t25.5 42.5t11 65.5q0 60 -29 92q-18 20 -43.5 26t-68.5 6q-17 0 -42.5 -0.5t-34.5 -0.5v-271z" />
    <glyph glyph-name="C" unicode="C" horiz-adv-x="500" 
d="M484 97l6 -3q-3 -42 -4 -61l-5 -8q-59 -38 -145 -38q-134 0 -213 100t-79 257q0 168 79 271q78 103 217 103q76 0 138 -29l4 -9q0 -4 -2 -11.5t-2 -11.5l-3 -33l-6 -3q-51 45 -129 45q-62 0 -109 -30.5t-72 -79.5t-36.5 -101.5t-11.5 -107.5q0 -133 63 -219t165 -86
q83 0 145 55z" />
    <glyph glyph-name="D" unicode="D" horiz-adv-x="583" 
d="M64 701l5 6q24 0 86 1t85 1q92 0 153 -23.5t100 -93.5q46 -80 46 -217q0 -216 -109 -311q-35 -30 -82 -45t-82 -17t-105 -2q-40 0 -84 -2l-6 6q1 8 1 24q1 39 1 118q0 131 -4 415q-1 45 -5 140zM225 658l-92 -1q0 -450 6 -607h83q103 2 152 40q42 32 70.5 104t28.5 185
q0 138 -50 208q-23 33 -58.5 49.5t-62.5 19t-77 2.5z" />
    <glyph glyph-name="E" unicode="E" 
d="M217 344l-82 -1q1 -180 4 -292h76q99 2 180 6l6 -6q-2 -20 -3 -45l-6 -6h-160q-78 0 -155 -2l-6 5q2 67 2 152q0 210 -4 404q0 6 -1 26.5t-2 53.5t-2 63l5 5q12 0 83.5 -0.5t85.5 -0.5q90 0 150 2l6 -5q-2 -14 -3 -44l-6 -6q-114 3 -192 3h-61q0 -52 0.5 -87t1 -80.5
t0.5 -95.5h85q51 0 154 3l7 -6q-3 -27 -3 -42l-8 -6q-50 2 -152 2z" />
    <glyph glyph-name="F" unicode="F" horiz-adv-x="396" 
d="M193 335h-58q0 -109 8 -329l-6 -6q-31 0 -60 -2l-5 6q2 63 2 149q0 33 -1 100t-1 101q0 69 -2 205q-2 86 -5 142l6 6q30 -1 75 -1h131q54 0 116 2l5 -6q-3 -16 -4 -45l-6 -6q-74 4 -163 5h-92q2 -258 2 -272h63q112 2 139 4l6 -6q-3 -17 -4 -43l-7 -6l-10 1q-21 0 -129 1
z" />
    <glyph glyph-name="G" unicode="G" horiz-adv-x="583" 
d="M530 333l5 -6q-3 -65 -3 -129q0 -111 1 -167l-6 -8q-82 -35 -172 -35q-149 0 -230 103t-81 256q0 53 9.5 103t33 99.5t58.5 86.5t90 60t123 23q89 0 152 -33l3 -8q-1 -6 -2.5 -17.5t-1.5 -17.5q0 -4 -0.5 -12t-0.5 -11l-7 -2q-51 48 -141 48q-53 0 -95 -16.5t-68 -44.5
t-44 -60t-26.5 -69.5t-12 -66t-3.5 -55.5q0 -140 65.5 -227.5t180.5 -87.5q64 0 112 24q0 24 0.5 71t0.5 70q0 48 -2 122l5 5q5 0 57 2z" />
    <glyph glyph-name="H" unicode="H" horiz-adv-x="562" 
d="M434 -2l-6 6q1 44 1 137q0 15 -0.5 107t-0.5 110h-20q-30 1 -90 1q-90 0 -183 -3q0 -94 8 -350l-6 -6q-34 0 -60 -2l-6 6q0 5 0.5 13t0.5 12q1 41 1 124q0 179 -3 407q-1 32 -2.5 76.5t-2.5 64.5l5 6q34 0 61 1l5 -6q-1 -183 -1 -292q195 -2 292 2q0 10 -1 73t-1 75
q-1 57 -5 141l6 6q18 -1 60 1l6 -6q-1 -61 -1 -184q0 -227 8 -489q0 -4 0.5 -11.5t0.5 -11.5l-6 -6q-32 0 -60 -2z" />
    <glyph glyph-name="I" unicode="I" horiz-adv-x="208" 
d="M144 6l-6 -6q-35 0 -61 -2l-6 6q2 76 2 158q0 225 -4 399q-1 48 -5 139l5 6q34 0 62 2l6 -6q-1 -65 -1 -195q0 -246 8 -501z" />
    <glyph glyph-name="J" unicode="J" horiz-adv-x="271" 
d="M197 708l5 -6q0 -14 -1 -100t-1 -102q0 -248 3 -326q0 -26 -1 -42t-8 -45.5t-21 -47.5t-42 -32t-68 -14q-27 0 -63 9l-5 8q1 24 0 51l7 4q30 -20 60 -20q25 0 41.5 11t23.5 32t9.5 40t2.5 47q0 12 -1 86.5t-1 92.5q0 105 -7 346l5 6q38 0 62 2z" />
    <glyph glyph-name="K" unicode="K" horiz-adv-x="479" 
d="M142 6l-6 -6q-34 0 -58 -2l-6 6q2 100 0 352q-1 193 -7 344l6 6q4 0 58 2l6 -6q-2 -211 -1 -318l111 144q77 100 128 174l8 4q29 -1 64 0l4 -6q-4 -4 -10 -12q-15 -18 -138 -177l-98 -128l47 -63q155 -211 237 -313l-3 -6h-34q-28 -2 -41 -3l-9 5q-69 99 -169 232
l-97 127q2 -144 4 -216q0 -52 4 -140z" />
    <glyph glyph-name="L" unicode="L" horiz-adv-x="396" 
d="M131 708l6 -6q-2 -142 -2 -213v-135q2 -138 2 -208q0 -61 2 -95h52q122 1 180 6l6 -6q-2 -21 -3 -47l-5 -6q-34 2 -50 2h-136q-40 1 -106 -1l-6 6q1 39 1 157q0 339 -8 539l6 5q11 0 30 0.5t31 1.5z" />
    <glyph glyph-name="M" unicode="M" horiz-adv-x="688" 
d="M220 552l117 -492l118 453q6 21 17.5 62t16.5 61q3 11 9.5 34.5t7.5 29.5l7 6q46 0 82 2l7 -6q1 -109 7 -263l5 -163q7 -168 13 -270l-6 -6q-33 0 -60 -2l-5 6v42q0 68 -3 195l-6 430l-117 -446q-8 -30 -28.5 -109.5t-28.5 -109.5l-7 -6q-40 0 -71 -2l-7 6q-1 3 -4 14
q-28 121 -47 201l-103 448l-12 -375q-6 -115 -8 -188q-2 -62 -2 -98l-7 -6q-28 0 -53 -2l-7 6q7 78 18 248l13 220l6 132l3 96l7 6q46 0 84 2l7 -6q1 -4 9.5 -39.5t17 -69t10.5 -41.5z" />
    <glyph glyph-name="N" unicode="N" horiz-adv-x="583" 
d="M346 165l-223 485l4 -298l3 -207q2 -58 4 -139l-6 -6q-26 0 -49 -2l-6 6q1 62 1 187q0 282 -8 509l6 6q44 0 83 2l8 -5q20 -41 71 -153q8 -19 18 -40.5t22.5 -48t19.5 -40.5l169 -368l-6 305q0 160 -8 342l6 6q14 0 50 2l6 -6q0 -16 -1 -24q-1 -46 -1 -138q0 -268 9 -533
l-6 -6q-48 0 -86 -3l-7 5q-21 45 -73 162z" />
    <glyph glyph-name="O" unicode="O" horiz-adv-x="625" 
d="M318 718q113 0 183 -82q80 -96 80 -283q0 -173 -74 -271q-71 -94 -195 -94q-132 0 -200 102.5t-68 264.5q0 165 70.5 264t203.5 99zM516 354q0 166 -64 247q-52 67 -136 67q-53 0 -93.5 -25.5t-61 -60.5t-33.5 -82t-16 -79.5t-3 -63.5q0 -158 64 -246q53 -72 142 -72
q43 0 76 15q38 18 64.5 54.5t39 82.5t17 84.5t4.5 78.5z" />
    <glyph glyph-name="P" unicode="P" horiz-adv-x="437" 
d="M65 701l5 6l54 1q72 2 88 2q113 0 163 -57q46 -54 46 -146q0 -67 -28.5 -119t-76.5 -76q-52 -26 -180 -24q2 -94 2 -142q2 -84 5 -140l-5 -6q-33 0 -60 -1l-6 5q2 80 2 150q0 211 -5 406q-1 85 -4 141zM136 338q86 0 112 7q34 9 57.5 30t33 48.5t13 48t3.5 40.5
q0 84 -46 121q-33 27 -103 27q-23 0 -73 -2q2 -236 3 -320z" />
    <glyph glyph-name="Q" unicode="Q" horiz-adv-x="625" 
d="M568 -121l-9 -2q-67 39 -236 111q-63 0 -112 21q-106 44 -146 181q-21 73 -21 163q0 180 83 280q71 85 190 85q133 0 198.5 -101t65.5 -256q0 -176 -79 -281q-43 -54 -97 -74l111 -42q60 -22 91 -30l2 -8q-27 -29 -41 -47zM315 39q50 0 87.5 23t58.5 57t33.5 79.5
t16.5 82.5t4 75q0 29 -2.5 57t-9 66t-21 69.5t-35.5 59.5t-55 44t-77 16q-45 0 -80 -17q-61 -31 -93.5 -113.5t-32.5 -186.5q0 -52 9.5 -101.5t30.5 -99.5t64 -80.5t102 -30.5z" />
    <glyph glyph-name="R" unicode="R" horiz-adv-x="458" 
d="M64 700l6 6q5 0 68 2t89 2q80 0 119 -24q74 -44 74 -160q0 -93 -51 -144q-29 -29 -95 -49l55 -99q83 -144 136 -226l-3 -7q-29 0 -71 -3l-9 6q-1 1 -41 79q-19 35 -64.5 117.5t-58.5 106.5l-10 17q-28 -1 -73 -1q0 -172 7 -317l-6 -6q-33 0 -59 -1l-6 6q2 76 2 157
q0 376 -9 538zM134 373q8 -1 22 -1q103 0 145 26q57 38 57 127q0 65 -30 99q-31 35 -112 35q-43 0 -82 -3q-1 -106 0 -283z" />
    <glyph glyph-name="S" unicode="S" 
d="M349 623l-8 -4q-42 49 -117 49q-56 0 -88.5 -33.5t-32.5 -87.5q0 -43 22.5 -71.5t80.5 -66.5q7 -5 22.5 -15t23.5 -15q30 -20 47.5 -34.5t39.5 -38.5t32 -55.5t10 -70.5q0 -78 -41 -128q-50 -64 -157 -64q-77 0 -141 36l-5 10q1 5 2 15.5t1 15.5l3 30l9 2q3 -3 9 -11
q47 -49 122 -49q66 0 100.5 40.5t34.5 97.5q0 51 -26 84t-78 69l-46 30q-35 23 -51.5 35.5t-38 35.5t-30.5 50t-9 62q0 77 46 126q49 51 139 51q72 0 127 -31l4 -9q-2 -9 -4 -31q-1 -4 -1 -12t-1 -12z" />
    <glyph glyph-name="T" unicode="T" 
d="M249 6l-7 -6q-31 0 -58 -2l-6 6q2 120 2 179q0 26 -0.5 186.5t-0.5 191.5q0 63 -1 95q-67 0 -172 -4l-5 6q0 8 0.5 13.5t1 13t0.5 15.5l6 6h141q218 1 261 3l5 -6q-1 -12 -3 -44l-7 -6q-66 4 -165 4q0 -15 -0.5 -44t-0.5 -44q0 -36 1 -108.5t1 -108.5q2 -193 7 -346z" />
    <glyph glyph-name="U" unicode="U" horiz-adv-x="562" 
d="M487 708l5 -6v-16q0 -36 -0.5 -128t-0.5 -128v-130q-1 -74 -3 -104.5t-13 -67.5t-34 -66q-58 -74 -163 -74q-137 0 -186 112q-23 54 -21 185v57v239q0 15 -2 119l5 6q36 0 63 2l6 -6q-4 -82 -6 -182v-238q0 -97 13 -141q31 -100 133 -100q64 0 102 42q33 36 40.5 89
t7.5 177q0 211 -6 351l6 6q33 0 54 2z" />
    <glyph glyph-name="V" unicode="V" horiz-adv-x="458" 
d="M267 6l-6 -6q-24 1 -69 -1l-7 5q-10 35 -31.5 118t-25.5 99l-73 271q-9 37 -29 109q-18 66 -27 98l4 6q30 1 63 4l5 -6q16 -79 62 -258l97 -382l119 458q4 16 12.5 49t12.5 50q2 11 18 81l8 6q26 -1 53 0l5 -6q-11 -35 -34.5 -120.5t-31.5 -111.5l-66 -243
q-24 -86 -59 -220z" />
    <glyph glyph-name="W" unicode="W" horiz-adv-x="729" 
d="M462 180l-98 483l-75 -381q-23 -106 -57 -277l-8 -5q-41 0 -76 -2l-6 6q-24 125 -47 232l-30 148q-20 94 -29 141q-25 119 -37 174l4 5q13 1 30 2t31 2l6 -6q26 -155 62 -338l58 -306l89 445q10 42 22 104q16 88 17 93l8 6q45 0 82 2l6 -6q14 -63 26 -123q7 -37 23 -111
l82 -407q37 189 72 378q4 21 11.5 63t11.5 63q19 101 24 135l8 6q29 -1 51 0l6 -6q-14 -60 -47 -218l-48 -234q-18 -89 -45 -243l-7 -5q-40 0 -75 -2l-7 6q-4 16 -5 24q-6 24 -16 72q-6 32 -17 80z" />
    <glyph glyph-name="X" unicode="X" 
d="M323 521l-79 -157l78 -157q50 -104 100 -199l-3 -6q-12 -1 -23.5 -1.5t-20 -1t-20.5 -1.5l-7 4q-22 53 -86 190l-53 111l-47 -95q-8 -16 -24 -47.5t-24 -47.5q-33 -64 -51 -108l-7 -5q-2 0 -11.5 0.5t-15.5 0.5q-21 0 -31 -1l-4 7q23 43 50 90q6 12 19 36t19 36l102 191
l-66 133q-28 54 -55 107q-39 79 -49 99l4 6q40 1 64 4l7 -6q26 -63 53 -122l77 -162l29 62q80 171 100 220l8 5q26 -1 57 0l3 -6q-1 -2 -3 -5.5t-3 -5.5q-13 -22 -87 -168z" />
    <glyph glyph-name="Y" unicode="Y" 
d="M326 490l-90 -199v-22q0 -123 5 -263l-6 -6q-32 0 -59 -1l-6 5q2 50 2 127q0 15 0.5 45.5t0.5 45.5q0 18 -0.5 38t-0.5 26l-85 204q-69 168 -87 208l4 7q5 0 60 4l7 -6q24 -67 50 -136l88 -225l76 184q46 110 68 174l7 6q27 -1 52 0l4 -7q-1 -3 -19.5 -45t-22.5 -51
q-36 -83 -48 -113z" />
    <glyph glyph-name="Z" unicode="Z" 
d="M312 519l-219 -470h108q125 0 198 7l6 -7q-3 -29 -4 -44l-5 -6q-33 2 -259 2q-70 0 -127 -2l-5 7q19 35 72 152q42 88 64 132l92 198q7 14 19 40.5t19 40.5q34 73 42 90h-80q-152 -4 -196 -6l-5 6q2 21 3 44l6 6q15 0 28.5 -0.5t23.5 -1t25 -0.5h173q14 0 52 0.5t53 0.5
l4 -7q-51 -102 -88 -182z" />
    <glyph glyph-name="bracketleft" unicode="[" horiz-adv-x="229" 
d="M137 429v-302q0 -56 2 -166q1 -58 4 -103q43 -1 79 0l6 -6q-2 -20 -2 -32l-7 -6q-76 0 -135 -2l-6 6q1 44 1 310v290q1 215 -4 310l6 6q78 0 142 2l6 -6q-3 -18 -3 -36l-7 -6q-33 1 -80 1q-2 -176 -2 -260z" />
    <glyph glyph-name="backslash" unicode="\" horiz-adv-x="292" 
d="M281 -180l-3 -8q-26 1 -51 0l-6 7q-37 138 -69 248l-102 345q-64 219 -97 316l3 8q26 -1 51 0l6 -6q33 -125 81 -294l99 -334q70 -230 88 -282z" />
    <glyph glyph-name="bracketright" unicode="]" horiz-adv-x="229" 
d="M92 119v302q0 56 -2 166q-1 58 -4 103q-43 1 -79 0l-6 6q2 20 2 32l7 6q76 0 135 2l6 -6q-1 -42 -1 -310v-290q-2 -186 4 -310l-6 -6q-78 0 -142 -2l-6 6q2 9 3 36l7 6q33 -1 80 -1q2 176 2 260z" />
    <glyph glyph-name="asciicircum" unicode="^" horiz-adv-x="729" 
d="M399 706l174 -356h-76l-131 273l-134 -273h-76l180 356h63z" />
    <glyph glyph-name="underscore" unicode="_" horiz-adv-x="500" 
d="M-10 -75h520v-50h-520v50z" />
    <glyph glyph-name="grave" unicode="`" horiz-adv-x="250" 
d="M69 738l4 6q34 -1 67 0l6 -6q6 -27 16 -65q15 -50 18 -65l-4 -6q-6 0 -10.5 -0.5t-10 -1t-11.5 -0.5l-7 6q-30 65 -68 132z" />
    <glyph glyph-name="a" unicode="a" horiz-adv-x="375" 
d="M315 -1l-6 5q-26 113 -44 173h-163q-37 -140 -43 -172l-6 -5q-24 1 -47 0l-6 6l2.5 7.5l2.5 7.5q30 100 47 162l62 218q2 8 18.5 65t20.5 69l6 6q29 0 57 2l6 -6q15 -57 35 -125l48 -168q37 -130 44 -152q2 -7 13.5 -43.5t12.5 -41.5l-6 -6q-10 0 -26.5 -0.5t-27.5 -1.5z
M149 352l-35 -128h67q46 0 71 1l-35 127q-6 21 -12.5 44.5t-11.5 41t-11 37.5q-9 -32 -33 -123z" />
    <glyph glyph-name="b" unicode="b" horiz-adv-x="396" 
d="M57 536l7 6q9 0 63.5 1t65.5 1q84 0 117 -39q29 -33 29 -92q0 -93 -70 -124l-9 -3q1 0 4 -1t5 -1q43 -9 68.5 -43.5t25.5 -87.5q0 -55 -28 -97q-27 -38 -67 -47t-123 -9q-31 0 -75 -2l-7 6q2 66 2 113q0 21 -1.5 158t-1.5 154q-3 75 -5 107zM122 498v-196q49 0 68 2
q91 11 91 104q0 69 -46 85q-23 8 -113 5zM126 47h31q72 0 95 12q51 23 51 95q0 29 -10 50t-23 31t-35.5 15.5t-35.5 6t-35 0.5q-8 0 -17 -0.5t-15.5 -0.5h-7.5q-1 -110 2 -209z" />
    <glyph glyph-name="c" unicode="c" horiz-adv-x="396" 
d="M381 85l10 -5q-3 -21 -4 -52l-4 -7q-51 -30 -118 -30q-101 0 -164 75.5t-63 197.5q0 51 12 99t37.5 91.5t72 70t108.5 26.5q61 0 113 -24l3 -8q0 -3 -1 -10t-2 -10q-1 -4 -2 -14t-1 -14l-8 -5q-43 36 -98 36q-78 0 -122 -60q-50 -65 -50 -176q0 -97 46.5 -161t122.5 -64
q68 0 112 44z" />
    <glyph glyph-name="d" unicode="d" horiz-adv-x="479" 
d="M58 535l6 7q19 0 68 0.5t68 0.5q97 0 144 -28q97 -59 97 -229q0 -61 -12.5 -112t-48.5 -96.5t-93 -63.5q-43 -14 -148 -14q-5 0 -34 -0.5t-35 -0.5l-6 6q0 13 0.5 47t0.5 62q0 157 -3 313q-1 26 -2.5 62t-1.5 46zM190 496l-67 -1q-1 -10 -1 -89t1 -187t3 -172h61
q80 0 120 32q73 57 73 212q0 141 -74 185q-33 20 -116 20z" />
    <glyph glyph-name="e" unicode="e" horiz-adv-x="354" 
d="M186 260h-63q0 -45 4 -213h57q90 1 148 4l7 -6q-2 -15 -3 -39l-7 -6h-131q-62 0 -85 -1q-29 -1 -43 -1l-6 6v19q1 32 1 96q0 255 -7 418l6 6q10 0 69 -0.5t70 -0.5q76 0 124 2l6 -6q-2 -19 -2 -40l-7 -5q-63 2 -158 2h-45q1 -34 2 -189h64q69 0 128 2l7 -6q-3 -17 -3 -38
l-7 -5q-34 1 -126 1z" />
    <glyph glyph-name="f" unicode="f" horiz-adv-x="333" 
d="M221 253h-98q0 -8 0.5 -41.5t1 -64.5t0.5 -32q1 -57 4 -108l-7 -7q-29 0 -53 -1l-6 6q2 70 2 115q0 19 -0.5 95t-1.5 144l-1 68q-2 65 -4 109l6 7q26 -1 62 -1h106q48 0 95 1l6 -6q-2 -16 -3 -40l-7 -5q-87 3 -133 3h-69q0 -38 0.5 -63t1 -60.5t0.5 -72.5h45q68 1 116 3
l7 -6q-3 -16 -4 -39l-7 -5q-21 0 -59 1z" />
    <glyph glyph-name="g" unicode="g" horiz-adv-x="479" 
d="M430 261l6 -7q-3 -42 -3 -97q0 -110 1 -131l-5 -7q-71 -28 -142 -28q-119 0 -184 77.5t-65 195.5q0 55 14 104.5t43 91.5t79 66.5t116 24.5q71 0 125 -26l3 -8q-1 -10 -3 -28q-1 -9 -1 -25l-9 -1q-39 39 -113 39q-50 0 -87.5 -19t-56.5 -45t-30.5 -61t-14.5 -59t-3 -46
q0 -102 51 -167.5t139 -65.5q48 0 84 16v14q1 29 1 87q0 57 -2 97l6 6q27 0 51 2z" />
    <glyph glyph-name="h" unicode="h" horiz-adv-x="458" 
d="M342 -1l-7 6q1 26 1 110q0 11 -0.5 77t-0.5 78h-10q-21 1 -65 1q-85 0 -137 -2q0 -116 5 -261l-8 -8q-25 1 -51 -1l-6 6q1 40 1 117q0 260 -6 414l6 6q34 0 53 1l6 -6q-2 -192 -1 -219q167 0 213 2q-2 30 -2 107q-1 15 -2 44.5t-1 44.5q-1 7 -1 20l6 6q29 0 54 1l6 -6
q-2 -307 6 -530l-6 -7q-27 1 -53 -1z" />
    <glyph glyph-name="i" unicode="i" horiz-adv-x="187" 
d="M130 6l-7 -6q-32 0 -54 -1l-6 6q0 16 0.5 52.5t0.5 67.5q0 257 -7 410l6 7q19 -1 54 1l7 -6q-1 -49 -1 -147q0 -202 7 -384z" />
    <glyph glyph-name="j" unicode="j" horiz-adv-x="229" 
d="M166 543l6 -6q0 -11 -1 -77t-1 -79q0 -16 1.5 -115.5t1.5 -119.5q0 -24 -1 -38.5t-6.5 -38.5t-17 -38t-34.5 -25t-56 -11q-28 0 -52 8l-5 7q1 25 0 48l8 4q23 -19 49 -19q19 0 31 8t16.5 24.5t6 31t1.5 38.5q0 173 -7 390l6 6q2 0 54 2z" />
    <glyph glyph-name="k" unicode="k" 
d="M128 6l-7 -6q-26 0 -52 -1l-6 6q2 353 -6 531l7 6q33 0 51 1l7 -6q-1 -81 -1 -243l92 112q66 80 103 132l8 4q30 -1 57 0l4 -8q-23 -26 -66 -80q-27 -32 -55 -67l-75 -92l35 -46q125 -160 192 -240l-4 -8h-33q-6 -1 -17.5 -1t-16.5 -1l-8 4q-27 36 -135 176l-80 98
q2 -144 6 -271z" />
    <glyph glyph-name="l" unicode="l" horiz-adv-x="313" 
d="M118 543l7 -6q-2 -76 -2 -174q0 -229 3 -316h33q101 2 137 5l6 -7q-2 -28 -2 -40l-6 -6q-6 0 -19 0.5t-23 0.5h-99q-29 1 -83 -1l-7 6q2 114 0 267q-1 127 -5 263l6 6q30 0 54 2z" />
    <glyph glyph-name="m" unicode="m" horiz-adv-x="562" 
d="M191 422l87 -364l87 335q16 54 26 92l15 51l7 6q20 -1 71 1l7 -6q1 -29 6 -201l4 -123q5 -120 10 -207l-7 -6q-31 0 -52 -1l-7 6v37q0 80 -2 144l-4 301l-82 -314q-27 -99 -45 -168l-8 -5q-34 0 -64 -1l-7 5q-1 2 -2 6.5t-1 6.5q-4 12 -36 152l-73 313l-9 -258l-6 -142
q-2 -72 -2 -76l-7 -6q-23 0 -46 -1l-7 6q11 134 14 190l10 166q6 109 7 174l8 7q34 -1 70 1l8 -7q3 -9 15.5 -58.5t14.5 -55.5z" />
    <glyph glyph-name="n" unicode="n" horiz-adv-x="479" 
d="M276 127l-164 351l3 -208l3 -156q0 -20 3 -108l-6 -6q-24 0 -45 -1l-7 6v21q1 43 1 129q0 227 -6 380l7 6q23 0 71 2l7 -5q17 -34 56 -115t48 -99l121 -262l-4 212q-1 144 -6 261l6 6q16 0 46 2l7 -6q-2 -66 -2 -124q0 -170 7 -406l-6 -7q-19 1 -37 0q-6 0 -18 -0.5
t-19 -0.5l-8 5q-1 2 -24.5 52t-33.5 71z" />
    <glyph glyph-name="o" unicode="o" horiz-adv-x="500" 
d="M255 551q88 0 143 -64q64 -73 64 -216q0 -123 -53.5 -201.5t-158.5 -78.5q-58 0 -101.5 25.5t-66.5 68t-33.5 90t-10.5 99.5q0 120 55 198.5t162 78.5zM401 272q0 121 -47 183q-39 49 -100 49q-77 0 -116 -66t-39 -165q0 -40 7.5 -78t24 -75t48 -59.5t74.5 -22.5
q63 0 100 48q48 62 48 186z" />
    <glyph glyph-name="p" unicode="p" horiz-adv-x="354" 
d="M58 535l6 7q20 -1 27 0q6 0 41.5 1t42.5 1q89 0 127 -44q37 -42 37 -114q0 -50 -21.5 -90t-61.5 -60q-37 -19 -132 -19q1 -147 5 -210l-6 -7q-27 0 -53 -1l-7 6q2 62 2 117q0 161 -3 305q-1 61 -4 108zM123 264q54 0 79 5q75 20 75 122q0 60 -32 87q-18 14 -41.5 17
t-82.5 2q0 -135 2 -233z" />
    <glyph glyph-name="q" unicode="q" horiz-adv-x="500" 
d="M103 56q-65 74 -65 214q0 138 65 215q57 66 151 66q105 0 156.5 -78t51.5 -196q0 -63 -16 -121q-29 -100 -113 -147q102 -38 152 -51l1 -9q-19 -18 -37 -41l-9 -2q-47 28 -183 86q-2 0 -7 0.5t-8 0.5q-89 4 -139 63zM351 86q49 61 49 187q0 120 -46 181q-37 50 -102 50
q-34 0 -59 -12q-45 -23 -69.5 -84.5t-24.5 -137.5q0 -37 6.5 -72.5t22 -73.5t47.5 -61.5t77 -23.5q62 0 99 47z" />
    <glyph glyph-name="r" unicode="r" horiz-adv-x="375" 
d="M58 535l6 6q9 0 25 0.5t24 0.5q4 0 37 1t34 1q62 0 94 -19q59 -40 59 -125q0 -116 -112 -147l40 -70q82 -137 110 -175l-4 -8h-33q-6 0 -16 -1t-16 -1l-7 4q-23 40 -67 120.5t-67 121.5q-19 -1 -41 -1q0 -122 5 -237l-6 -6q-13 0 -53 -2l-6 6q0 15 0.5 52t0.5 69
q0 140 -3 302q-1 69 -4 108zM123 495v-206q30 0 45.5 1t40.5 6.5t37 16.5t22 33t10 54q0 97 -98 97q-10 0 -57 -2z" />
    <glyph glyph-name="s" unicode="s" horiz-adv-x="333" 
d="M278 466l-9 -4q-33 42 -89 42q-43 0 -65.5 -24t-22.5 -63q0 -32 16.5 -52t60.5 -48q3 -2 15.5 -9.5t19.5 -12.5q21 -13 34 -23t30.5 -28.5t26.5 -44.5t9 -58q0 -59 -32 -100q-41 -50 -125 -50q-58 0 -113 29l-4 8q0 4 1 12.5t2 13.5t2 15.5t1 15.5l9 3q38 -51 102 -51
q49 0 73.5 29.5t24.5 70.5q0 38 -19.5 62t-57.5 49l-35 21q-34 22 -51 35t-33.5 42t-16.5 65q0 61 37 100q40 40 109 40q56 0 102 -25l3 -8q-1 -4 -2 -12.5t-1 -13.5q0 -4 -0.5 -13t-1.5 -13z" />
    <glyph glyph-name="t" unicode="t" horiz-adv-x="354" 
d="M214 6l-7 -5q-27 0 -52 -2l-7 6q2 68 2 139q0 19 -0.5 140t-0.5 144v67q-58 0 -133 -3l-6 7q2 16 2 37l7 6h113q175 1 206 2l6 -6q-1 -9 -3 -39l-7 -6q-54 3 -126 3q-4 -165 6 -490z" />
    <glyph glyph-name="u" unicode="u" horiz-adv-x="437" 
d="M380 543l6 -7v-14q0 -27 -0.5 -97t-0.5 -96v-98q-1 -59 -3 -82t-10.5 -50.5t-26.5 -50.5q-46 -57 -128 -57q-108 0 -146 87q-18 41 -18 141v220q0 68 -1 96l6 6q29 0 55 2l6 -7q-4 -85 -4 -320q0 -23 0.5 -36.5t3 -38t9.5 -39t18 -30.5t30.5 -24t44.5 -8q70 0 96 64
q14 37 14 161q0 150 -4 270l6 6q1 0 47 2z" />
    <glyph glyph-name="v" unicode="v" horiz-adv-x="375" 
d="M222 6l-7 -6q-30 1 -59 -1l-7 6q-14 45 -46 165l-57 204q-38 134 -46 159l5 7q16 1 56 4l7 -6q13 -59 49 -196l72 -278l90 335q15 55 20 75q1 3 7.5 30t7.5 33l8 5q25 -1 47 0l6 -7q-1 -3 -2.5 -8t-2.5 -7q-9 -26 -26.5 -86.5t-22.5 -76.5l-52 -183q-37 -131 -47 -168z
" />
    <glyph glyph-name="w" unicode="w" horiz-adv-x="583" 
d="M363 140l-71 346l-55 -270q-7 -31 -23 -107.5t-22 -103.5l-7 -5h-20q-19 0 -46 -1l-6 6q-4 19 -37 177l-24 111q-4 19 -11.5 55t-10.5 51q-20 90 -30 134l6 6q29 2 53 4l7 -6q13 -79 49 -257l40 -212l65 317q12 52 17 78q2 9 5.5 27.5t5.5 28.5q0 3 1 8.5t2 8.5l8 5
q38 0 70 1l6 -5q1 -3 2.5 -9.5t2.5 -9.5q11 -63 34 -159l59 -290q18 90 52 268q3 16 9 47.5t9 47.5q3 17 9.5 53t9.5 51l7 5q6 -1 26 -0.5t22 0.5l6 -6q-11 -44 -37 -168l-38 -176q-3 -16 -9.5 -46.5t-9.5 -45.5q-7 -48 -17 -93l-7 -6q-35 0 -64 -1l-8 5q-23 107 -30 136z
" />
    <glyph glyph-name="x" unicode="x" horiz-adv-x="333" 
d="M258 396l-59 -116l60 -117q47 -94 80 -154l-5 -7q-23 -1 -57 -4l-7 5q-27 61 -67 144l-37 76l-32 -64q-6 -11 -12 -23t-13.5 -26t-11.5 -22q-24 -45 -40 -83l-7 -5q-27 1 -51 0l-5 8q19 32 41 72l30 54l77 141l-51 99q-5 9 -13.5 25.5t-15.5 30t-13 25.5q-31 60 -40 78
l5 7q12 0 21.5 0.5t19.5 1.5t16 1l7 -5q4 -9 42 -93l55 -113l18 38q49 97 80 167l7 5q21 -1 50 0l4 -8q-22 -38 -76 -138z" />
    <glyph glyph-name="y" unicode="y" horiz-adv-x="333" 
d="M263 373l-68 -149q-1 -140 2 -218l-7 -6q-25 0 -51 -1l-7 6q2 61 2 214l-66 153q-36 84 -70 161l5 7q25 1 54 4l7 -6q26 -70 39 -104l64 -158l56 127q25 59 53 133l7 6q21 -1 48 0l5 -8q-13 -27 -42 -92t-31 -69z" />
    <glyph glyph-name="z" unicode="z" horiz-adv-x="354" 
d="M267 393l-171 -347h78q128 2 160 4l6 -6q-1 -9 -3 -39l-6 -6q-20 1 -60 1h-147q-64 0 -106 -1l-5 7q15 25 59 119q7 15 15.5 31.5t18.5 37t16 31.5l74 149q7 15 29 59.5t31 63.5l-56 -1q-123 -3 -158 -5l-6 7q2 19 2 38l7 6q5 0 27 -0.5t37 -0.5h137q67 0 87 2l5 -8
q-19 -35 -71 -142z" />
    <glyph glyph-name="braceleft" unicode="{" horiz-adv-x="354" 
d="M307 736v-39q-48 -7 -67 -28q-13 -14 -19 -34.5t-7 -37t-1 -48.5v-64q0 -114 -10.5 -154.5t-57.5 -55.5v-3q38 -11 54 -46q9 -21 11 -50t3 -114v-64q0 -32 1 -48.5t7 -37t19 -34.5q19 -21 67 -28v-39q-82 3 -118 43q-16 18 -24 45t-9 46.5t-1 56.5v105q0 33 -1 49
t-4.5 37.5t-11 31t-21 18t-33.5 10.5v41q20 2 33.5 10.5t21 18t11 31t4.5 37.5t1 49v104q0 38 1 57.5t9 46.5t24 45q36 40 118 43z" />
    <glyph glyph-name="bar" unicode="|" horiz-adv-x="229" 
d="M85 750h59v-1000h-59v1000z" />
    <glyph glyph-name="braceright" unicode="}" horiz-adv-x="354" 
d="M142 485v64q0 32 -1 48.5t-7 37t-19 34.5q-19 21 -67 28v39q82 -3 118 -43q16 -18 24 -45t9 -46.5t1 -57.5v-104q0 -33 1 -49t4.5 -37.5t10.5 -31t20.5 -18t33.5 -10.5v-41q-20 -2 -33.5 -10.5t-20.5 -18t-10.5 -31t-4.5 -37.5t-1 -49v-105q0 -37 -1 -56.5t-9 -46.5
t-24 -45q-36 -40 -118 -43v39q48 7 67 28q13 14 19 34.5t7 37t1 48.5v64q0 90 4 125q5 41 21.5 59t41.5 26v3q-47 15 -57 55.5t-10 154.5z" />
    <glyph glyph-name="asciitilde" unicode="~" horiz-adv-x="729" 
d="M564 355l31 -55q-62 -77 -128 -77q-31 0 -96 31l-30 15q-52 25 -83 25q-20 0 -37 -9q-12 -7 -20.5 -15.5t-33.5 -40.5l-33 55q11 15 18 23.5t23 24t37 23.5t45 8q39 0 113 -35l32 -15q44 -20 65 -20q50 0 97 62z" />
    <glyph glyph-name="exclamdown" unicode="&#xa1;" horiz-adv-x="208" 
d="M53 699l7 6q38 0 65 3l6 -7q0 -6 -0.5 -18t-0.5 -18t0.5 -18.5t0.5 -17.5l-6 -6q-23 -1 -65 -5l-7 6q1 37 0 75zM65 511l5 6q26 2 41 4l6 -6q0 -86 6.5 -261.5t11.5 -248.5l-5 -6q-28 1 -71 -2l-5 6q2 26 2 40q10 190 10 370q0 27 -0.5 59.5t-0.5 38.5z" />
    <glyph glyph-name="cent" unicode="&#xa2;" horiz-adv-x="313" 
d="M286 70l11 -6q-2 -20 -4 -46l-5 -9q-27 -13 -60 -16q1 -5 2 -32.5t1 -32.5l-8 -8q-20 0 -36 -2l-8 9v67q-59 7 -98 54q-42 52 -42 149q0 112 55 169q37 37 81 42q0 36 -2 68l7 8q23 0 37 1l8 -7v-68q30 -2 61 -16l5 -8q-3 -24 -4 -45l-12 -5q-28 25 -65 25q-30 0 -52 -15
t-32 -33.5t-16 -45.5t-6.5 -40t-0.5 -28q0 -157 110 -157q40 0 73 28z" />
    <glyph glyph-name="sterling" unicode="&#xa3;" 
d="M334 311l-7 -6q-73 4 -161 2q5 -40 5 -76q0 -91 -33 -185h36q90 1 195 6l5 -6q0 -3 -2 -41l-6 -5h-227q-53 0 -79 -1l-5 6q56 95 56 231q0 28 -4 72q-42 -1 -74 -3l-5 6q3 24 3 35l6 5q39 -1 65 0q-11 93 -11 115q0 78 42.5 136t128.5 58q51 0 106 -25l3 -8
q-2 -18 -2 -26q-1 -9 -1 -26l-6 -2q-48 38 -96 38q-54 0 -86 -42q-28 -38 -28 -105q0 -29 10 -112q104 0 170 2l5 -5q-1 -10 -3 -38z" />
    <glyph glyph-name="currency" unicode="&#xa4;" horiz-adv-x="667" 
d="M610 569l-74 -73q54 -71 54 -158q0 -82 -55 -156l74 -75l-46 -45l-73 75q-26 -18 -41.5 -27t-47 -18t-68.5 -9t-67 8.5t-46.5 18t-42.5 27.5l-74 -73l-45 45l74 73q-19 29 -27.5 44t-18 46.5t-9.5 67.5q0 84 55 156l-73 73l45 45l73 -73q24 17 38.5 25.5t48.5 19t71 10.5
q80 0 156 -54l73 73zM335 142q81 0 137.5 56t56.5 142q0 87 -57.5 142t-135.5 55q-82 0 -140 -55t-58 -143q0 -82 56.5 -139.5t140.5 -57.5z" />
    <glyph glyph-name="yen" unicode="&#xa5;" 
d="M262 319l-26 -53v-32q95 1 128 3l5 -6q-3 -21 -4 -38l-6 -6q-48 2 -122 2q1 -108 4 -184l-6 -5q-11 0 -59 -2l-6 6q2 38 2 185q-8 0 -58.5 -1t-60.5 -1l-5 6q1 10 3 35l6 7q28 -1 115 -1v28l-26 57q-7 -1 -46.5 -2t-46.5 -1l-5 6q3 27 3 36l6 5q28 -1 69 0l-39 87
q-49 110 -87 190l5 6q11 0 18.5 0.5t18.5 1.5t23 2l7 -5q22 -57 49 -125l88 -205l77 168q43 98 67 160l7 5q27 -1 52 0l4 -6q-2 -4 -20.5 -42t-21.5 -46q-44 -94 -48 -104l-42 -86q20 0 48 1t32 1l5 -5q-3 -24 -4 -38l-6 -6q-33 2 -97 2z" />
    <glyph glyph-name="brokenbar" unicode="&#xa6;" horiz-adv-x="229" 
d="M85 675h60v-350h-60v350zM85 175h60v-350h-60v350z" />
    <glyph glyph-name="section" unicode="&#xa7;" 
d="M228 464l40 -32q32 -24 46.5 -35.5t33 -31t25 -39t6.5 -44.5q0 -91 -118 -142q27 -19 41 -31t29.5 -41.5t15.5 -65.5q0 -63 -38 -104q-43 -48 -126 -48q-73 0 -131 39l-4 10q2 18 3 28q1 4 1 13.5t1 14.5l7 3q26 -27 53 -42t69 -15q48 0 75 30q24 27 24 72
q0 25 -11.5 45.5t-26 33t-44.5 33.5l-48 34q-24 18 -38 29.5t-35 33.5t-31.5 46.5t-10.5 51.5q0 31 11.5 57t33 44t33.5 26t31 18q-62 62 -62 126q0 58 38.5 97.5t108.5 39.5q54 0 103 -26l5 -9q-3 -16 -6 -51l-9 -3q-46 38 -92 38q-43 0 -65 -25.5t-22 -57.5
q0 -25 12.5 -47t26 -35t45.5 -38zM188 195l43 -30q81 39 81 108q0 25 -13.5 47t-30 36.5t-56.5 44.5l-36 28q-29 -13 -46 -31q-32 -35 -32 -77q0 -25 12.5 -47.5t28 -37t49.5 -41.5z" />
    <glyph glyph-name="dieresis" unicode="&#xa8;" horiz-adv-x="250" 
d="M74 696l6 -6q-1 -30 -1 -67l-5 -6q-17 0 -54 -3l-6 6q1 31 0 67l7 6q20 0 53 3zM229 696l6 -6q-1 -30 -1 -67l-6 -6q-16 0 -55 -3l-5 6q1 32 0 67l6 6q16 0 55 3z" />
    <glyph glyph-name="copyright" unicode="&#xa9;" horiz-adv-x="833" 
d="M567 253l42 -35q-12 -17 -24 -29q-63 -65 -165 -65q-96 0 -161.5 65.5t-65.5 162.5q0 103 67.5 168.5t162.5 65.5q38 0 69.5 -9t55 -26.5t35 -28.5t26.5 -28l-42 -39q-18 21 -32 34t-44.5 27t-64.5 14q-73 0 -124 -49.5t-51 -126.5q0 -72 50 -123t124 -51q36 0 68 15
t44.5 26.5t29.5 31.5zM772 353q0 -149 -102.5 -252.5t-253.5 -103.5q-144 0 -249.5 101.5t-105.5 254.5q0 150 104 253t252 103q152 0 253.5 -103.5t101.5 -252.5zM740 352q0 136 -92.5 230.5t-229.5 94.5t-231 -95t-94 -228q0 -138 95 -231.5t229 -93.5q113 0 204 71
q64 51 91.5 120.5t27.5 131.5z" />
    <glyph glyph-name="ordfeminine" unicode="&#xaa;" horiz-adv-x="271" 
d="M186 360l-1 14q-33 -25 -70 -25q-46 0 -72 31.5t-26 77.5q0 36 12.5 61t37 38.5t40.5 19t43 10.5l35 8q0 27 -2 40.5t-15 24.5t-40 11q-42 0 -74 -25l-9 5q3 22 3 36l4 7q36 19 86 19q62 0 84 -42q7 -15 8.5 -30t1.5 -65v-81q0 -90 4 -133l-6 -7q-24 0 -38 -1zM185 420
v134q-63 -15 -76 -22q-43 -22 -43 -72q0 -27 13.5 -48t43.5 -21q33 0 62 29z" />
    <glyph glyph-name="guillemotleft" unicode="&#xab;" horiz-adv-x="354" 
d="M130 75l-8 6q-27 60 -44 92q-1 3 -13.5 26t-23.5 45l-11 21l1 11q53 106 84 182l8 6q2 -1 26.5 -0.5t28.5 0.5l4 -6q-39 -74 -87 -185q34 -84 95 -191l-4 -6q-28 0 -56 -1zM276 75l-8 6q-27 60 -44 92q-1 3 -13.5 26t-23.5 45l-11 21v11q52 101 85 182l8 6q1 -1 26 -0.5
t29 0.5l4 -6q-39 -74 -87 -185q36 -92 95 -191l-4 -6q-28 0 -56 -1z" />
    <glyph glyph-name="logicalnot" unicode="&#xac;" horiz-adv-x="667" 
d="M607 0v262h-607v59h667v-321h-60z" />
    <glyph glyph-name="registered" unicode="&#xae;" horiz-adv-x="833" 
d="M274 577h137q73 0 103 -11q33 -12 50.5 -39.5t17.5 -60.5q0 -44 -28 -72.5t-71 -34.5q34 -12 49 -33.5t22 -64.5q6 -42 8.5 -56t8.5 -34t16 -39h-75q-11 25 -18 61q-1 5 -5.5 35.5t-5.5 35.5q-9 46 -34 60t-78 15h-32v-207h-65v445zM340 527v-136h74q55 0 78 17
q24 19 24 53q0 31 -21 49q-13 12 -31 14.5t-64 2.5h-60zM773 354q0 -149 -103 -253t-254 -104q-143 0 -249 101t-106 255q0 151 104.5 253.5t250.5 102.5q153 0 255 -104t102 -251zM416 29q137 0 231 94.5t94 230.5q0 134 -93 228.5t-230 94.5q-136 0 -230.5 -95t-94.5 -229
q0 -136 94.5 -230t228.5 -94z" />
    <glyph glyph-name="macron" unicode="&#xaf;" horiz-adv-x="250" 
d="M246 684l6 -6q-4 -26 -5 -43l-7 -6q-39 2 -143 2q-59 0 -93 -1l-6 6q3 17 6 42l7 6q51 -3 143 -3q58 0 92 3z" />
    <glyph glyph-name="macron" unicode="&#x2c9;" horiz-adv-x="250" 
d="M246 684l6 -6q-4 -26 -5 -43l-7 -6q-39 2 -143 2q-59 0 -93 -1l-6 6q3 17 6 42l7 6q51 -3 143 -3q58 0 92 3z" />
    <glyph glyph-name="degree" unicode="&#xb0;" horiz-adv-x="354" 
d="M177 748q61 0 104 -43t43 -104t-43 -104t-104 -43t-104 43t-43 104t43 104t104 43zM177 688q-37 0 -62 -25.5t-25 -61.5t25 -61.5t62 -25.5q36 0 61.5 25.5t25.5 61.5t-25.5 61.5t-61.5 25.5z" />
    <glyph glyph-name="plusminus" unicode="&#xb1;" horiz-adv-x="500" 
d="M281 342v-190h-59v190h-191v59h191v190h59v-190h188v-59h-188zM469 59v-59h-438v59h438z" />
    <glyph glyph-name="twosuperior" unicode="&#xb2;" horiz-adv-x="313" 
d="M143 307l-46 -60h43q109 3 127 4l6 -6q0 -6 -1 -15.5t-2 -18.5l-8 -6q-16 1 -54 1h-136q-36 0 -56 -1l-3 10q25 37 70 88q19 24 55 72q38 50 52.5 81t14.5 65q0 46 -22 68.5t-55 22.5q-48 0 -90 -42l-8 6q1 7 1.5 20t0.5 20l4 9q48 31 99 31q59 0 90 -38t31 -94
q0 -52 -24 -94t-89 -123z" />
    <glyph glyph-name="threesuperior" unicode="&#xb3;" horiz-adv-x="313" 
d="M177 515l-23 -40q53 0 81.5 -36.5t28.5 -89.5q0 -64 -35 -107.5t-108 -43.5q-56 0 -98 28l-3 8q2 14 2 20q0 3 0.5 9.5t1.5 9.5l8 4q37 -37 87 -37q31 0 52.5 13t29.5 33t10.5 33.5t2.5 26.5q0 38 -20 63t-61 25q-26 0 -46 -10l-10 10l37 63q3 4 18.5 31.5t29 50
l16.5 27.5h-47q-84 -1 -92 -2l-6 6q3 20 3 32l7 6q10 0 50 -1h102q10 0 29.5 0.5t23.5 0.5l5 -10q-16 -24 -40 -63z" />
    <glyph glyph-name="acute" unicode="&#xb4;" horiz-adv-x="250" 
d="M181 747l3 -6q-37 -63 -74 -135l-6 -5q-26 2 -36 1l-3 6q1 2 20 61.5t23 71.5l7 6q39 -2 66 0z" />
    <glyph glyph-name="mu" unicode="&#xb5;" horiz-adv-x="458" 
d="M335 4l2 44q-68 -57 -133 -57q-45 0 -83 36q0 -143 5 -227l-6 -6q-24 1 -54 0l-6 6q1 58 1 174v380q0 107 -2 152l6 6q32 0 58 2l5 -6q-2 -50 -4 -234v-103q0 -51 7 -72q19 -59 86 -59q55 0 118 61q2 288 -4 405l5 6q30 0 57 2l6 -6q-3 -77 -3 -297q0 -113 5 -205l-6 -6
q-30 0 -54 -2z" />
    <glyph glyph-name="mu" unicode="&#x3bc;" horiz-adv-x="458" 
d="M335 4l2 44q-68 -57 -133 -57q-45 0 -83 36q0 -143 5 -227l-6 -6q-24 1 -54 0l-6 6q1 58 1 174v380q0 107 -2 152l6 6q32 0 58 2l5 -6q-2 -50 -4 -234v-103q0 -51 7 -72q19 -59 86 -59q55 0 118 61q2 288 -4 405l5 6q30 0 57 2l6 -6q-3 -77 -3 -297q0 -113 5 -205l-6 -6
q-30 0 -54 -2z" />
    <glyph glyph-name="paragraph" unicode="&#xb6;" horiz-adv-x="667" 
d="M310 706h221v-44h-33v-829h-46v829h-157v-829h-46v497q-25 4 -37 7t-34.5 15.5t-40.5 31.5q-47 50 -47 128q0 71 39 120q25 32 61.5 49.5t60.5 20.5t59 4z" />
    <glyph glyph-name="periodcentered" unicode="&#xb7;" horiz-adv-x="187" 
d="M134 246l-7 -6q-24 0 -66 -3l-6 7q0 6 0.5 18t0.5 18t-0.5 18.5t-0.5 17.5l6 6q23 1 65 5l7 -6q-1 -39 1 -75z" />
    <glyph glyph-name="periodcentered" unicode="&#x2219;" horiz-adv-x="187" 
d="M134 246l-7 -6q-24 0 -66 -3l-6 7q0 6 0.5 18t0.5 18t-0.5 18.5t-0.5 17.5l6 6q23 1 65 5l7 -6q-1 -39 1 -75z" />
    <glyph glyph-name="cedilla" unicode="&#xb8;" horiz-adv-x="250" 
d="M82 -179l-4 6q24 64 45 125l5 6q16 -1 41 -1l3 -6q-15 -64 -27 -124l-5 -6q-26 1 -58 0z" />
    <glyph glyph-name="onesuperior" unicode="&#xb9;" horiz-adv-x="313" 
d="M191 212l-6 -6q-26 0 -43 -1l-6 6q1 23 1 70v31q0 96 -2 290q-25 -4 -50 -9l-7 6q1 14 1 33l5 6q46 5 97 15l7 -5q-2 -118 -2 -120q0 -54 5 -316z" />
    <glyph glyph-name="ordmasculine" unicode="&#xba;" horiz-adv-x="313" 
d="M159 713q51 0 84 -35q45 -47 45 -152q0 -81 -34 -128q-35 -49 -99 -49q-58 0 -94 44q-37 47 -37 136q0 99 44 146q34 38 91 38zM236 523q0 149 -78 149q-36 0 -56 -26q-26 -33 -26 -113q0 -79 24 -114q21 -29 57 -29q23 0 40 12q39 28 39 121z" />
    <glyph glyph-name="guillemotright" unicode="&#xbb;" horiz-adv-x="354" 
d="M78 464l8 -6q24 -53 44 -92q4 -6 26 -48.5t22 -43.5v-11q-55 -109 -85 -182l-8 -6h-55l-4 6q39 74 87 185q-36 92 -95 191l4 6q28 0 56 1zM224 464l8 -6q29 -64 44 -92q1 -3 13.5 -26t23.5 -44l11 -22l-1 -11q-57 -115 -84 -182l-8 -6h-55l-4 6q39 74 87 185
q-34 84 -95 191l4 6q28 0 56 1z" />
    <glyph glyph-name="onequarter" unicode="&#xbc;" horiz-adv-x="750" 
d="M727 133l-7 -6h-50q0 -68 2 -121l-6 -6q-25 0 -38 -1l-7 6q1 39 1 122h-101q-4 0 -30.5 -0.5t-28.5 -0.5l-7 7q2 13 2 28l3 8q101 175 142 259q3 7 11 13q12 1 25 1t25 1l6 -6q1 -32 1 -130v-140q10 0 24 0.5t29 0.5l6 -6q-1 -5 -1.5 -14.5t-0.5 -14.5zM506 168h115
l2 217zM191 212l-6 -6q-26 0 -43 -1l-6 6q1 23 1 70v31q0 97 -2 291q-18 -3 -50 -9l-7 6q1 14 1 33l5 5q54 8 97 16l7 -6q-2 -118 -2 -119q0 -52 5 -317zM403 351l-61 -155q-45 -115 -71 -189l-8 -7q-16 2 -19 2q-7 0 -23 -2l-4 8q57 123 109 259l42 106q68 176 100 269l8 6
q22 -1 41 0l5 -7q-36 -80 -119 -290z" />
    <glyph glyph-name="onehalf" unicode="&#xbd;" horiz-adv-x="750" 
d="M191 212l-6 -6q-26 0 -43 -1l-6 6q1 23 1 70v31q0 97 -2 291q-18 -3 -50 -9l-7 6q1 14 1 33l5 5q54 8 97 16l7 -6q-2 -118 -2 -119q0 -52 5 -317zM391 351l-61 -155q-31 -80 -71 -190l-8 -6q-8 1 -19 1q-15 0 -23 -1l-4 7q53 118 109 260l42 106q68 176 100 269l8 6
q22 -1 41 0l5 -7q-36 -80 -119 -290zM581 101l-46 -60l43 1q94 1 127 4l6 -6q0 -7 -1 -16t-2 -19l-8 -6q-13 1 -54 1h-137q-38 0 -55 -1l-4 10q58 74 70 88q19 24 55 72q39 52 53 82t14 64q0 46 -22 68.5t-55 22.5q-44 0 -90 -42l-8 6q2 26 2 40l4 9q48 31 99 31
q59 0 90 -38t31 -94q0 -52 -24 -94t-88 -123z" />
    <glyph glyph-name="threequarters" unicode="&#xbe;" horiz-adv-x="750" 
d="M409 351l-61 -155q-45 -115 -71 -189l-8 -7q-16 2 -19 2q-7 0 -23 -2l-4 8q45 98 109 259l42 105q69 178 100 270l8 6q21 -1 41 0l5 -7q-36 -80 -119 -290zM177 515l-23 -40q53 0 81.5 -36.5t28.5 -89.5q0 -64 -35 -107.5t-108 -43.5q-56 0 -98 28l-3 8q2 14 2 20
q0 3 0.5 9.5t1.5 9.5l8 4q37 -37 87 -37q31 0 52.5 13t29.5 33t10.5 33.5t2.5 26.5q0 38 -20 63t-61 25q-26 0 -46 -10l-10 10l37 63q3 4 18.5 31.5t29 50l16.5 27.5h-47q-84 -1 -92 -2l-6 6q3 20 3 32l7 6q10 0 50 -1h102q10 0 29.5 0.5t23.5 0.5l5 -10q-16 -24 -40 -63z
M727 133l-7 -6h-50q0 -68 2 -121l-6 -6q-25 0 -38 -1l-7 6q1 39 1 122h-101q-4 0 -30.5 -0.5t-28.5 -0.5l-7 7q2 13 2 28l3 8q99 172 142 258q4 8 11 14q26 0 50 2l6 -6q1 -33 1 -130v-140q10 0 24 0.5t29 0.5l6 -6q-1 -5 -1.5 -14.5t-0.5 -14.5zM506 168h115l2 217z" />
    <glyph glyph-name="questiondown" unicode="&#xbf;" horiz-adv-x="313" 
d="M137 701l7 6q38 0 65 3l6 -7q0 -6 -0.5 -18t-0.5 -18t0.5 -18.5t0.5 -17.5l-6 -6q-23 -1 -65 -5l-7 6q1 37 0 75zM153 522l7 6q10 0 21.5 1t20.5 1l7 -6q1 -60 -9.5 -95t-43.5 -92q-67 -108 -67 -177q0 -52 30 -88t83 -36q49 0 109 41l6 -4q-2 -20 -2 -45l-5 -9
q-60 -31 -121 -31q-78 0 -118.5 49.5t-40.5 117.5q0 34 11 70t20.5 54t28.5 51l17 28q28 48 37.5 80.5t8.5 83.5z" />
    <glyph glyph-name="Agrave" unicode="&#xc0;" horiz-adv-x="479" 
d="M405 5l-27 115q-11 46 -30 115h-223l-10 -38q-33 -125 -47 -191l-7 -6q-30 1 -56 0l-5 6q1 2 2.5 7t2.5 7q38 128 62 215l81 290q21 71 50 175l6 6q3 0 71 2l6 -6q23 -87 46 -164l63 -222q29 -103 89 -309l-5 -6q-12 0 -31.5 -0.5t-30.5 -1.5zM234 648l-96 -361
q98 -1 195 0zM140 876l3 6h72q6 -6 8 -14q15 -48 37 -110l-3 -6q-19 0 -37 -1l-6 6q-42 70 -74 119z" />
    <glyph glyph-name="Aacute" unicode="&#xc1;" horiz-adv-x="479" 
d="M405 5l-27 115q-11 46 -30 115h-223l-10 -38q-33 -125 -47 -191l-7 -6q-30 1 -56 0l-5 6q1 2 2.5 7t2.5 7q38 128 62 215l81 290q21 71 50 175l6 6q3 0 71 2l6 -6q23 -87 46 -164l63 -222q29 -103 89 -309l-5 -6q-12 0 -31.5 -0.5t-30.5 -1.5zM234 648l-96 -361
q98 -1 195 0zM330 882l3 -5q-32 -51 -71 -122l-6 -5q-19 1 -36 0l-4 6q18 49 36 119l6 6q48 0 72 1z" />
    <glyph glyph-name="Acircumflex" unicode="&#xc2;" horiz-adv-x="479" 
d="M405 5l-27 115q-11 46 -30 115h-223l-10 -38q-33 -125 -47 -191l-7 -6q-30 1 -56 0l-5 6q1 2 2.5 7t2.5 7q38 128 62 215l81 290q21 71 50 175l6 6q3 0 71 2l6 -6q23 -87 46 -164l63 -222q29 -103 89 -309l-5 -6q-12 0 -31.5 -0.5t-30.5 -1.5zM234 648l-96 -361
q98 -1 195 0zM298 751l-8 6q-30 62 -51 99q-26 -41 -60 -98l-7 -6q-15 1 -43 0l-3 6l30 54q23 41 36 66l7 6q7 0 21.5 -0.5t21.5 -0.5t20.5 0.5t21.5 0.5q4 -3 12 -17q4 -7 29 -52.5t30 -54.5l-3 -6q-40 -2 -54 -3z" />
    <glyph glyph-name="Atilde" unicode="&#xc3;" horiz-adv-x="479" 
d="M405 5l-27 115q-11 46 -30 115h-223l-10 -38q-33 -125 -47 -191l-7 -6q-30 1 -56 0l-5 6q1 2 2.5 7t2.5 7q38 128 62 215l81 290q21 71 50 175l6 6q3 0 71 2l6 -6q23 -87 46 -164l63 -222q29 -103 89 -309l-5 -6q-12 0 -31.5 -0.5t-30.5 -1.5zM234 648l-96 -361
q98 -1 195 0zM360 854l6 -2q-1 -22 -1 -56l-4 -7q-33 -30 -65 -30q-22 0 -57 16q-50 21 -63 21q-32 0 -57 -41l-6 3q1 22 1 56l3 6q37 31 66 31q17 0 57 -17q48 -20 61 -20q31 0 59 40z" />
    <glyph glyph-name="Adieresis" unicode="&#xc4;" horiz-adv-x="479" 
d="M405 5l-27 115q-11 46 -30 115h-223l-10 -38q-33 -125 -47 -191l-7 -6q-30 1 -56 0l-5 6q1 2 2.5 7t2.5 7q38 128 62 215l81 290q21 71 50 175l6 6q3 0 71 2l6 -6q23 -87 46 -164l63 -222q29 -103 89 -309l-5 -6q-12 0 -31.5 -0.5t-30.5 -1.5zM234 648l-96 -361
q98 -1 195 0zM361 850l6 -7q-2 -45 -1 -64l-6 -8q-18 0 -55 -3l-6 8q1 30 0 64l7 7q36 1 55 3zM172 850l6 -7q-2 -45 -1 -64l-6 -8q-17 0 -55 -3l-6 8q1 29 0 64l7 7q36 1 55 3z" />
    <glyph glyph-name="Aring" unicode="&#xc5;" horiz-adv-x="479" 
d="M405 5l-27 115q-11 46 -30 115h-223l-10 -38q-33 -125 -47 -191l-7 -6q-30 1 -56 0l-5 6q1 2 2.5 7t2.5 7q38 128 62 215l81 290q21 71 50 175l6 6q3 0 71 2l6 -6q23 -87 46 -164l63 -222q29 -103 89 -309l-5 -6q-12 0 -31.5 -0.5t-30.5 -1.5zM234 648l-96 -361
q98 -1 195 0zM324 833q0 -40 -23 -65.5t-61 -25.5q-39 0 -61 26t-22 65q0 41 23.5 66.5t59.5 25.5q35 0 59.5 -25t24.5 -67zM241 776q19 0 29 14q11 16 11 44q0 22 -10 39t-31 17q-41 0 -41 -57t42 -57z" />
    <glyph glyph-name="AE" unicode="&#xc6;" horiz-adv-x="688" 
d="M352 -2l-5 6q1 35 1 221q-16 0 -48.5 0.5t-48.5 0.5q-17 0 -49 -0.5t-49 -0.5l-46 -121q-25 -66 -36 -98l-6 -6q-33 0 -59 -2l-6 6q54 135 67 166q10 24 28.5 72.5t27.5 72.5l57 145q5 13 47 118q32 79 47 123l7 6h227q126 0 154 2l5 -6q-1 -12 -3 -44l-7 -6
q-71 4 -203 4h-49q2 -214 2 -263h67q114 2 173 4l6 -6q-4 -24 -4 -44l-7 -6q-3 0 -9.5 0.5t-9.5 0.5q-54 1 -139 1h-77q0 -158 4 -293h56q126 2 199 7l6 -6q-4 -28 -4 -46l-7 -6q-13 1 -38 1h-186q-1 0 -16 -0.5t-26 -0.5q-7 0 -17 -0.5t-16.5 -1t-9.5 -0.5zM344 658h-31
q-60 -154 -143 -383q15 0 44.5 -0.5t44.5 -0.5q14 0 44 0.5t45 0.5q0 11 -4 383z" />
    <glyph glyph-name="Ccedilla" unicode="&#xc7;" horiz-adv-x="500" 
d="M267 -179l-4 6q15 39 44 125l6 6q16 -1 40 -1l4 -6q-15 -64 -27 -124l-6 -6q-26 1 -57 0zM484 97l6 -3q-3 -42 -4 -61l-5 -8q-62 -38 -147 -38q-130 0 -210 99t-80 258q0 52 9 102t31 100t54.5 87.5t83.5 61t115 23.5q80 0 141 -30l4 -9q0 -3 -1.5 -11t-2.5 -12
q-1 -10 -3 -32l-6 -3q-56 44 -127 44q-105 0 -164 -81q-67 -89 -67 -237q0 -133 63 -219t165 -86q83 0 145 55z" />
    <glyph glyph-name="Egrave" unicode="&#xc8;" 
d="M217 344l-82 -1q1 -180 4 -292h76q99 2 180 6l6 -6q-2 -20 -3 -45l-6 -6h-160q-78 0 -155 -2l-6 5q2 67 2 152q0 210 -4 404q0 6 -1 26.5t-2 53.5t-2 63l5 5q12 0 83.5 -0.5t85.5 -0.5q90 0 150 2l6 -5q-2 -14 -3 -44l-6 -6q-114 3 -192 3h-61q0 -52 0.5 -87t1 -80.5
t0.5 -95.5h85q51 0 154 3l7 -6q-3 -27 -3 -42l-8 -6q-50 2 -152 2zM109 876l3 6h72q6 -6 8 -14q15 -48 37 -110l-3 -6q-19 0 -37 -1l-6 6q-42 70 -74 119z" />
    <glyph glyph-name="Eacute" unicode="&#xc9;" 
d="M217 344l-82 -1q1 -180 4 -292h76q99 2 180 6l6 -6q-2 -20 -3 -45l-6 -6h-160q-78 0 -155 -2l-6 5q2 67 2 152q0 210 -4 404q0 6 -1 26.5t-2 53.5t-2 63l5 5q12 0 83.5 -0.5t85.5 -0.5q90 0 150 2l6 -5q-2 -14 -3 -44l-6 -6q-114 3 -192 3h-61q0 -52 0.5 -87t1 -80.5
t0.5 -95.5h85q51 0 154 3l7 -6q-3 -27 -3 -42l-8 -6q-50 2 -152 2zM299 882l3 -5q-32 -51 -71 -122l-6 -5q-19 1 -36 0l-4 6q18 49 36 119l6 6q48 0 72 1z" />
    <glyph glyph-name="Ecircumflex" unicode="&#xca;" 
d="M217 344l-82 -1q1 -180 4 -292h76q99 2 180 6l6 -6q-2 -20 -3 -45l-6 -6h-160q-78 0 -155 -2l-6 5q2 67 2 152q0 210 -4 404q0 6 -1 26.5t-2 53.5t-2 63l5 5q12 0 83.5 -0.5t85.5 -0.5q90 0 150 2l6 -5q-2 -14 -3 -44l-6 -6q-114 3 -192 3h-61q0 -52 0.5 -87t1 -80.5
t0.5 -95.5h85q51 0 154 3l7 -6q-3 -27 -3 -42l-8 -6q-50 2 -152 2zM267 751l-8 6q-30 62 -51 99q-26 -41 -60 -98l-7 -6q-15 1 -43 0l-3 6l30 54q23 41 36 66l7 6q7 0 21.5 -0.5t21.5 -0.5t20.5 0.5t21.5 0.5q4 -3 12 -17q4 -7 29 -52.5t30 -54.5l-3 -6q-40 -2 -54 -3z" />
    <glyph glyph-name="Edieresis" unicode="&#xcb;" 
d="M217 344l-82 -1q1 -180 4 -292h76q99 2 180 6l6 -6q-2 -20 -3 -45l-6 -6h-160q-78 0 -155 -2l-6 5q2 67 2 152q0 210 -4 404q0 6 -1 26.5t-2 53.5t-2 63l5 5q12 0 83.5 -0.5t85.5 -0.5q90 0 150 2l6 -5q-2 -14 -3 -44l-6 -6q-114 3 -192 3h-61q0 -52 0.5 -87t1 -80.5
t0.5 -95.5h85q51 0 154 3l7 -6q-3 -27 -3 -42l-8 -6q-50 2 -152 2zM331 850l6 -7q-2 -45 -1 -64l-6 -8q-18 0 -55 -3l-6 8q1 30 0 64l7 7q36 1 55 3zM142 850l6 -7q-2 -45 -1 -64l-6 -8q-18 0 -55 -3l-6 8q1 29 0 64l7 7q36 1 55 3z" />
    <glyph glyph-name="Igrave" unicode="&#xcc;" horiz-adv-x="208" 
d="M144 6l-6 -6q-35 0 -61 -2l-6 6q2 76 2 158q0 225 -4 399q-1 48 -5 139l5 6q34 0 62 2l6 -6q-1 -65 -1 -195q0 -246 8 -501zM5 876l3 6h72q6 -6 8 -14q15 -48 37 -110l-3 -6q-19 0 -37 -1l-6 6q-42 70 -74 119z" />
    <glyph glyph-name="Iacute" unicode="&#xcd;" horiz-adv-x="208" 
d="M144 6l-6 -6q-35 0 -61 -2l-6 6q2 76 2 158q0 225 -4 399q-1 48 -5 139l5 6q34 0 62 2l6 -6q-1 -65 -1 -195q0 -246 8 -501zM195 882l3 -5q-32 -51 -71 -122l-6 -5q-19 1 -36 0l-4 6q18 49 36 119l6 6q48 0 72 1z" />
    <glyph glyph-name="Icircumflex" unicode="&#xce;" horiz-adv-x="208" 
d="M144 6l-6 -6q-35 0 -61 -2l-6 6q2 76 2 158q0 225 -4 399q-1 48 -5 139l5 6q34 0 62 2l6 -6q-1 -65 -1 -195q0 -246 8 -501zM163 751l-8 6q-30 62 -51 99q-26 -41 -60 -98l-7 -6q-15 1 -43 0l-3 6l30 54q23 41 36 66l7 6q7 0 21.5 -0.5t21.5 -0.5t20.5 0.5t21.5 0.5
q4 -3 12 -17q4 -7 29 -52.5t30 -54.5l-3 -6q-40 -2 -54 -3z" />
    <glyph glyph-name="Idieresis" unicode="&#xcf;" horiz-adv-x="208" 
d="M144 6l-6 -6q-35 0 -61 -2l-6 6q2 76 2 158q0 225 -4 399q-1 48 -5 139l5 6q34 0 62 2l6 -6q-1 -65 -1 -195q0 -246 8 -501zM227 850l6 -7q-2 -45 -1 -64l-6 -8q-18 0 -55 -3l-6 8q1 30 0 64l7 7q36 1 55 3zM38 850l6 -7q-2 -45 -1 -64l-6 -8q-17 0 -55 -3l-6 8
q1 29 0 64l7 7q36 1 55 3z" />
    <glyph glyph-name="Eth" unicode="&#xd0;" horiz-adv-x="583" 
d="M64 701l5 6q23 0 85 1t86 1q119 0 179 -37q120 -76 120 -300q0 -54 -8.5 -103.5t-28.5 -101t-59.5 -91t-94.5 -58.5q-54 -18 -187 -18q-40 0 -84 -2l-6 6q1 8 1 24q1 39 1 117q0 140 -2 208h-65l-6 4q1 21 0 40l6 5h65q-1 161 -7 299zM326 357l-5 -5q-62 1 -186 1
q0 -147 1 -175q0 -63 3 -128h83q33 1 53 3t50 12t53 29q95 77 95 285q0 138 -50 208q-23 33 -58.5 49.5t-62.5 19t-77 2.5l-91 -1q-2 -87 0 -255q13 0 90.5 0.5t95.5 0.5l6 -6v-40z" />
    <glyph glyph-name="Ntilde" unicode="&#xd1;" horiz-adv-x="583" 
d="M346 165l-223 485l4 -298l3 -207q2 -58 4 -139l-6 -6q-26 0 -49 -2l-6 6q1 62 1 187q0 282 -8 509l6 6q44 0 83 2l8 -5q20 -41 71 -153q8 -19 18 -40.5t22.5 -48t19.5 -40.5l169 -368l-6 305q0 160 -8 342l6 6q14 0 50 2l6 -6q0 -16 -1 -24q-1 -46 -1 -138q0 -268 9 -533
l-6 -6q-48 0 -86 -3l-7 5q-21 45 -73 162zM413 854l6 -2q-1 -22 -1 -56l-4 -7q-33 -30 -65 -30q-22 0 -57 16q-50 21 -63 21q-32 0 -57 -41l-6 3q1 22 1 56l3 6q37 31 66 31q17 0 57 -17q48 -20 61 -20q31 0 59 40z" />
    <glyph glyph-name="Ograve" unicode="&#xd2;" horiz-adv-x="625" 
d="M318 718q113 0 183 -82q80 -96 80 -283q0 -173 -74 -271q-71 -94 -195 -94q-132 0 -200 102.5t-68 264.5q0 165 70.5 264t203.5 99zM516 354q0 166 -64 247q-52 67 -136 67q-53 0 -93.5 -25.5t-61 -60.5t-33.5 -82t-16 -79.5t-3 -63.5q0 -158 64 -246q53 -72 142 -72
q43 0 76 15q38 18 64.5 54.5t39 82.5t17 84.5t4.5 78.5zM213 876l3 6h72q6 -6 8 -14q15 -48 37 -110l-3 -6q-19 0 -37 -1l-6 6q-42 70 -74 119z" />
    <glyph glyph-name="Oacute" unicode="&#xd3;" horiz-adv-x="625" 
d="M318 718q113 0 183 -82q80 -96 80 -283q0 -173 -74 -271q-71 -94 -195 -94q-132 0 -200 102.5t-68 264.5q0 165 70.5 264t203.5 99zM516 354q0 166 -64 247q-52 67 -136 67q-53 0 -93.5 -25.5t-61 -60.5t-33.5 -82t-16 -79.5t-3 -63.5q0 -158 64 -246q53 -72 142 -72
q43 0 76 15q38 18 64.5 54.5t39 82.5t17 84.5t4.5 78.5zM403 882l3 -5q-32 -51 -71 -122l-6 -5q-19 1 -36 0l-4 6q18 49 36 119l6 6q48 0 72 1z" />
    <glyph glyph-name="Ocircumflex" unicode="&#xd4;" horiz-adv-x="625" 
d="M318 718q113 0 183 -82q80 -96 80 -283q0 -173 -74 -271q-71 -94 -195 -94q-132 0 -200 102.5t-68 264.5q0 165 70.5 264t203.5 99zM516 354q0 166 -64 247q-52 67 -136 67q-53 0 -93.5 -25.5t-61 -60.5t-33.5 -82t-16 -79.5t-3 -63.5q0 -158 64 -246q53 -72 142 -72
q43 0 76 15q38 18 64.5 54.5t39 82.5t17 84.5t4.5 78.5zM371 751l-8 6q-30 62 -51 99q-26 -41 -60 -98l-7 -6q-15 1 -43 0l-3 6l30 54q23 41 36 66l7 6q7 0 21.5 -0.5t21.5 -0.5t20.5 0.5t21.5 0.5q4 -3 12 -17q4 -7 29 -52.5t30 -54.5l-3 -6q-40 -2 -54 -3z" />
    <glyph glyph-name="Otilde" unicode="&#xd5;" horiz-adv-x="625" 
d="M318 718q113 0 183 -82q80 -96 80 -283q0 -173 -74 -271q-71 -94 -195 -94q-132 0 -200 102.5t-68 264.5q0 165 70.5 264t203.5 99zM516 354q0 166 -64 247q-52 67 -136 67q-53 0 -93.5 -25.5t-61 -60.5t-33.5 -82t-16 -79.5t-3 -63.5q0 -158 64 -246q53 -72 142 -72
q43 0 76 15q38 18 64.5 54.5t39 82.5t17 84.5t4.5 78.5zM433 854l6 -2q-1 -22 -1 -56l-4 -7q-33 -30 -65 -30q-22 0 -57 16q-50 21 -63 21q-32 0 -57 -41l-6 3q1 22 1 56l3 6q37 31 66 31q17 0 57 -17q48 -20 61 -20q31 0 59 40z" />
    <glyph glyph-name="Odieresis" unicode="&#xd6;" horiz-adv-x="625" 
d="M318 718q113 0 183 -82q80 -96 80 -283q0 -173 -74 -271q-71 -94 -195 -94q-132 0 -200 102.5t-68 264.5q0 165 70.5 264t203.5 99zM516 354q0 166 -64 247q-52 67 -136 67q-53 0 -93.5 -25.5t-61 -60.5t-33.5 -82t-16 -79.5t-3 -63.5q0 -158 64 -246q53 -72 142 -72
q43 0 76 15q38 18 64.5 54.5t39 82.5t17 84.5t4.5 78.5zM433 850l6 -7q-2 -45 -1 -64l-6 -8q-18 0 -55 -3l-6 8q1 30 0 64l7 7q36 1 55 3zM244 850l6 -7q-2 -45 -1 -64l-6 -8q-18 0 -55 -3l-6 8q1 29 0 64l7 7q36 1 55 3z" />
    <glyph glyph-name="multiply" unicode="&#xd7;" horiz-adv-x="500" 
d="M292 291l148 -148l-42 -42l-148 148l-148 -148l-42 42l148 148l-148 148l42 42l148 -148l148 148l42 -42z" />
    <glyph glyph-name="Oslash" unicode="&#xd8;" horiz-adv-x="625" 
d="M623 675l-1 -9q-8 -9 -14 -15t-13.5 -14.5t-16.5 -18.5q-26 -30 -40 -45q43 -89 43 -220q0 -175 -76 -272q-70 -93 -192 -93q-116 0 -185 85q-47 -62 -70 -88l-8 1q-15 15 -31 28v10q25 23 81 88q-56 93 -56 242q0 70 15 132t45.5 115.5t85.5 85t127 31.5q43 0 78.5 -11
t60.5 -31t35 -31t23 -29l8 9q3 4 29.5 37t32.5 40l9 -1q14 -16 30 -26zM494 521l-327 -400q45 -83 149 -83q85 0 135 64q66 83 66 257q0 86 -23 162zM143 163l332 403q-9 23 -27 44q-50 59 -131 59q-48 0 -85 -19q-40 -21 -67.5 -63t-38.5 -91.5t-14.5 -81.5t-3.5 -59
q0 -108 35 -192z" />
    <glyph glyph-name="Ugrave" unicode="&#xd9;" horiz-adv-x="562" 
d="M487 708l5 -6v-16q0 -36 -0.5 -128t-0.5 -128v-130q-1 -74 -3 -104.5t-13 -67.5t-34 -66q-58 -74 -163 -74q-137 0 -186 112q-23 54 -21 185v57v239q0 15 -2 119l5 6q36 0 63 2l6 -6q-4 -82 -6 -182v-238q0 -97 13 -141q31 -100 133 -100q64 0 102 42q33 36 40.5 89
t7.5 177q0 211 -6 351l6 6q33 0 54 2zM182 876l3 6h72q6 -6 8 -14q15 -48 37 -110l-3 -6q-19 0 -37 -1l-6 6q-42 70 -74 119z" />
    <glyph glyph-name="Uacute" unicode="&#xda;" horiz-adv-x="562" 
d="M487 708l5 -6v-16q0 -36 -0.5 -128t-0.5 -128v-130q-1 -74 -3 -104.5t-13 -67.5t-34 -66q-58 -74 -163 -74q-137 0 -186 112q-23 54 -21 185v57v239q0 15 -2 119l5 6q36 0 63 2l6 -6q-4 -82 -6 -182v-238q0 -97 13 -141q31 -100 133 -100q64 0 102 42q33 36 40.5 89
t7.5 177q0 211 -6 351l6 6q33 0 54 2zM372 882l3 -5q-32 -51 -71 -122l-6 -5q-19 1 -36 0l-4 6q18 49 36 119l6 6q48 0 72 1z" />
    <glyph glyph-name="Ucircumflex" unicode="&#xdb;" horiz-adv-x="562" 
d="M487 708l5 -6v-16q0 -36 -0.5 -128t-0.5 -128v-130q-1 -74 -3 -104.5t-13 -67.5t-34 -66q-58 -74 -163 -74q-137 0 -186 112q-23 54 -21 185v57v239q0 15 -2 119l5 6q36 0 63 2l6 -6q-4 -82 -6 -182v-238q0 -97 13 -141q31 -100 133 -100q64 0 102 42q33 36 40.5 89
t7.5 177q0 211 -6 351l6 6q33 0 54 2zM340 751l-8 6q-30 62 -51 99q-26 -41 -60 -98l-7 -6q-15 1 -43 0l-3 6l30 54q23 41 36 66l7 6q7 0 21.5 -0.5t21.5 -0.5t20.5 0.5t21.5 0.5q4 -3 12 -17q4 -7 29 -52.5t30 -54.5l-3 -6q-40 -2 -54 -3z" />
    <glyph glyph-name="Udieresis" unicode="&#xdc;" horiz-adv-x="562" 
d="M487 708l5 -6v-16q0 -36 -0.5 -128t-0.5 -128v-130q-1 -74 -3 -104.5t-13 -67.5t-34 -66q-58 -74 -163 -74q-137 0 -186 112q-23 54 -21 185v57v239q0 15 -2 119l5 6q36 0 63 2l6 -6q-4 -82 -6 -182v-238q0 -97 13 -141q31 -100 133 -100q64 0 102 42q33 36 40.5 89
t7.5 177q0 211 -6 351l6 6q33 0 54 2zM402 850l6 -7q-2 -45 -1 -64l-6 -8q-17 0 -55 -3l-6 8q1 30 0 64l7 7q36 1 55 3zM213 850l6 -7q-2 -45 -1 -64l-6 -8q-18 0 -55 -3l-6 8q1 29 0 64l7 7q36 1 55 3z" />
    <glyph glyph-name="Yacute" unicode="&#xdd;" 
d="M326 490l-90 -199v-22q0 -123 5 -263l-6 -6q-32 0 -59 -1l-6 5q2 50 2 127q0 15 0.5 45.5t0.5 45.5q0 18 -0.5 38t-0.5 26l-85 204q-69 168 -87 208l4 7q5 0 60 4l7 -6q24 -67 50 -136l88 -225l76 184q46 110 68 174l7 6q27 -1 52 0l4 -7q-1 -3 -19.5 -45t-22.5 -51
q-36 -83 -48 -113zM299 882l3 -5q-32 -51 -71 -122l-6 -5q-19 1 -36 0l-4 6q18 49 36 119l6 6q48 0 72 1z" />
    <glyph glyph-name="Thorn" unicode="&#xde;" horiz-adv-x="437" 
d="M131 708l6 -6v-114q36 2 74 2q114 0 164 -57q46 -54 46 -146q0 -67 -28 -118.5t-77 -76.5q-23 -11 -54.5 -16.5t-54 -6.5t-67.5 -1v-22q0 -1 1 -32t2 -65.5t1 -42.5l-6 -6q-35 0 -61 -2l-6 6q2 76 2 157q0 226 -4 400q-1 48 -5 139l5 6q34 0 62 2zM139 218h13
q62 0 96 7.5t59 30.5q48 46 48 136q0 84 -46 121q-33 27 -103 27q-9 0 -69 -2q0 -196 2 -320z" />
    <glyph glyph-name="germandbls" unicode="&#xdf;" horiz-adv-x="666" 
d="M278 466l-9 -4q-33 42 -89 42q-43 0 -65.5 -24t-22.5 -63q0 -32 16.5 -52t60.5 -48q3 -2 15.5 -9.5t19.5 -12.5q21 -13 34 -23t30.5 -28.5t26.5 -44.5t9 -58q0 -59 -32 -100q-41 -50 -125 -50q-58 0 -113 29l-4 8q0 4 1 12.5t2 13.5t2 15.5t1 15.5l9 3q38 -51 102 -51
q49 0 73.5 29.5t24.5 70.5q0 38 -19.5 62t-57.5 49l-35 21q-34 22 -51 35t-33.5 42t-16.5 65q0 61 37 100q40 40 109 40q56 0 102 -25l3 -8q-1 -4 -2 -12.5t-1 -13.5q0 -4 -0.5 -13t-1.5 -13zM611 466l-9 -4q-33 42 -89 42q-43 0 -65.5 -24t-22.5 -63q0 -32 16.5 -52
t60.5 -48q3 -2 15.5 -9.5t19.5 -12.5q21 -13 34 -23t30.5 -28.5t26.5 -44.5t9 -58q0 -59 -32 -100q-41 -50 -125 -50q-58 0 -113 29l-4 8q1 5 2 13t1 13t1 15.5t2 15.5l9 3q38 -51 102 -51q49 0 73.5 29.5t24.5 70.5q0 38 -19.5 62t-57.5 49l-35 21q-34 22 -51 35t-33.5 42
t-16.5 65q0 61 37 100q40 40 109 40q56 0 102 -25l3 -8q0 -4 -1 -12.5t-2 -13.5q0 -4 -0.5 -13t-1.5 -13z" />
    <glyph glyph-name="agrave" unicode="&#xe0;" horiz-adv-x="375" 
d="M315 -1l-6 5q-26 113 -44 173h-163q-37 -140 -43 -172l-6 -5q-24 1 -47 0l-6 6l2.5 7.5l2.5 7.5q30 100 47 162l62 218q2 8 18.5 65t20.5 69l6 6q29 0 57 2l6 -6q15 -57 35 -125l48 -168q37 -130 44 -152q2 -7 13.5 -43.5t12.5 -41.5l-6 -6q-10 0 -26.5 -0.5t-27.5 -1.5z
M149 352l-35 -128h67q46 0 71 1l-35 127q-6 21 -12.5 44.5t-11.5 41t-11 37.5q-9 -32 -33 -123zM99 738l4 6q34 -1 67 0l6 -6q6 -27 16 -65q15 -50 18 -65l-4 -6l-32 -2l-7 6q-30 65 -68 132z" />
    <glyph glyph-name="aacute" unicode="&#xe1;" horiz-adv-x="375" 
d="M315 -1l-6 5q-26 113 -44 173h-163q-37 -140 -43 -172l-6 -5q-24 1 -47 0l-6 6l2.5 7.5l2.5 7.5q30 100 47 162l62 218q2 8 18.5 65t20.5 69l6 6q29 0 57 2l6 -6q15 -57 35 -125l48 -168q37 -130 44 -152q2 -7 13.5 -43.5t12.5 -41.5l-6 -6q-10 0 -26.5 -0.5t-27.5 -1.5z
M149 352l-35 -128h67q46 0 71 1l-35 127q-6 21 -12.5 44.5t-11.5 41t-11 37.5q-9 -32 -33 -123zM282 747l3 -6q-37 -63 -74 -135l-6 -5q-26 2 -36 1l-3 6q1 2 20 61.5t23 71.5l7 6q39 -2 66 0z" />
    <glyph glyph-name="acircumflex" unicode="&#xe2;" horiz-adv-x="375" 
d="M315 -1l-6 5q-26 113 -44 173h-163q-37 -140 -43 -172l-6 -5q-24 1 -47 0l-6 6l2.5 7.5l2.5 7.5q30 100 47 162l62 218q2 8 18.5 65t20.5 69l6 6q29 0 57 2l6 -6q15 -57 35 -125l48 -168q37 -130 44 -152q2 -7 13.5 -43.5t12.5 -41.5l-6 -6q-10 0 -26.5 -0.5t-27.5 -1.5z
M149 352l-35 -128h67q46 0 71 1l-35 127q-6 21 -12.5 44.5t-11.5 41t-11 37.5q-9 -32 -33 -123zM229 601l-6 6q-7 19 -12.5 35t-12 33.5t-11.5 31.5q-25 -47 -50 -101l-7 -5q-5 1 -20 0.5t-18 -0.5l-4 5q34 61 63 132l6 6q37 -1 66 0l6 -6q48 -120 53 -132l-5 -6
q-14 1 -48 1z" />
    <glyph glyph-name="atilde" unicode="&#xe3;" horiz-adv-x="375" 
d="M315 -1l-6 5q-26 113 -44 173h-163q-37 -140 -43 -172l-6 -5q-24 1 -47 0l-6 6l2.5 7.5l2.5 7.5q30 100 47 162l62 218q2 8 18.5 65t20.5 69l6 6q29 0 57 2l6 -6q15 -57 35 -125l48 -168q37 -130 44 -152q2 -7 13.5 -43.5t12.5 -41.5l-6 -6q-10 0 -26.5 -0.5t-27.5 -1.5z
M149 352l-35 -128h67q46 0 71 1l-35 127q-6 21 -12.5 44.5t-11.5 41t-11 37.5q-9 -32 -33 -123zM293 704l7 -3q-2 -16 -2 -49l-4 -9q-21 -25 -57 -25q-23 0 -51 13q-36 18 -54 18t-28 -7t-23 -25l-6 3v50q0 5 7 12.5t22 14t32 6.5q21 0 51 -13q39 -19 54 -19q29 0 52 33z
" />
    <glyph glyph-name="adieresis" unicode="&#xe4;" horiz-adv-x="375" 
d="M315 -1l-6 5q-26 113 -44 173h-163q-37 -140 -43 -172l-6 -5q-24 1 -47 0l-6 6l2.5 7.5l2.5 7.5q30 100 47 162l62 218q2 8 18.5 65t20.5 69l6 6q29 0 57 2l6 -6q15 -57 35 -125l48 -168q37 -130 44 -152q2 -7 13.5 -43.5t12.5 -41.5l-6 -6q-10 0 -26.5 -0.5t-27.5 -1.5z
M149 352l-35 -128h67q46 0 71 1l-35 127q-6 21 -12.5 44.5t-11.5 41t-11 37.5q-9 -32 -33 -123zM136 695l6 -6q-1 -30 -1 -67l-5 -6q-16 0 -54 -3l-6 6q1 31 0 67l7 6q20 0 53 3zM291 695l6 -6q-1 -30 -1 -67l-6 -6q-16 0 -55 -3l-5 6q1 32 0 67l6 6q16 0 55 3z" />
    <glyph glyph-name="aring" unicode="&#xe5;" horiz-adv-x="375" 
d="M315 -1l-6 5q-26 113 -44 173h-163q-37 -140 -43 -172l-6 -5q-24 1 -47 0l-6 6l2.5 7.5l2.5 7.5q30 100 47 162l62 218q2 8 18.5 65t20.5 69l6 6q29 0 57 2l6 -6q15 -57 35 -125l48 -168q37 -130 44 -152q2 -7 13.5 -43.5t12.5 -41.5l-6 -6q-10 0 -26.5 -0.5t-27.5 -1.5z
M149 352l-35 -128h67q46 0 71 1l-35 127q-6 21 -12.5 44.5t-11.5 41t-11 37.5q-9 -32 -33 -123zM272 689q0 -41 -22.5 -66t-61.5 -25t-61.5 26t-22.5 65q0 41 24 66.5t60 25.5q35 0 59.5 -25t24.5 -67zM189 633q39 0 39 56q0 24 -10.5 40t-29.5 16q-40 0 -40 -57
q0 -55 41 -55z" />
    <glyph glyph-name="ae" unicode="&#xe6;" horiz-adv-x="562" 
d="M284 -1l-7 6q1 56 1 166q-80 0 -151 -2l-35 -88q-15 -35 -29 -75l-7 -6q-26 0 -49 -1l-7 6q14 35 54 130q30 72 45 109l46 109q7 14 19.5 43.5t18.5 44.5q29 67 40 94l6 6h183q90 0 126 1l6 -6q-2 -17 -3 -39l-7 -5q-63 3 -167 3h-34q0 -12 0.5 -95t0.5 -94h50
q14 0 142 3l7 -7q-3 -14 -4 -39l-7 -5q-63 1 -130 1h-58q0 -112 3 -211h41q100 1 163 5l6 -6q-2 -14 -3 -41l-7 -6q-31 1 -62 0h-121q-14 0 -38 -0.5t-32 -0.5zM276 496h-17q-64 -152 -113 -280q39 -1 132 1q0 33 -2 279z" />
    <glyph glyph-name="ccedilla" unicode="&#xe7;" horiz-adv-x="396" 
d="M198 -179l-4 6q15 39 44 125l6 6q16 -1 41 -1l3 -6q-15 -64 -27 -124l-6 -6q-26 1 -57 0zM381 85l10 -5q-3 -21 -4 -52l-4 -7q-51 -30 -118 -30q-102 0 -164.5 75.5t-62.5 197.5q0 52 12.5 100.5t38 91.5t72 69t107.5 26q60 0 113 -24l3 -8q0 -3 -1 -10t-2 -10
q-1 -4 -2 -14t-1 -14l-8 -5q-43 36 -98 36q-79 0 -122 -60q-50 -66 -50 -175q0 -99 46.5 -162.5t122.5 -63.5q64 0 112 44z" />
    <glyph glyph-name="egrave" unicode="&#xe8;" horiz-adv-x="354" 
d="M186 260h-63q0 -45 4 -213h57q90 1 148 4l7 -6q-2 -15 -3 -39l-7 -6h-131q-62 0 -85 -1q-29 -1 -43 -1l-6 6v19q1 32 1 96q0 255 -7 418l6 6q10 0 69 -0.5t70 -0.5q76 0 124 2l6 -6q-2 -19 -2 -40l-7 -5q-63 2 -158 2h-45q1 -34 2 -189h64q69 0 128 2l7 -6q-3 -17 -3 -38
l-7 -5q-34 1 -126 1zM89 738l4 6q34 -1 67 0l6 -6q6 -27 16 -65q15 -50 18 -65l-4 -6q-6 0 -10.5 -0.5t-10 -1t-11.5 -0.5l-7 6q-30 65 -68 132z" />
    <glyph glyph-name="eacute" unicode="&#xe9;" horiz-adv-x="354" 
d="M186 260h-63q0 -45 4 -213h57q90 1 148 4l7 -6q-2 -15 -3 -39l-7 -6h-131q-62 0 -85 -1q-29 -1 -43 -1l-6 6v19q1 32 1 96q0 255 -7 418l6 6q10 0 69 -0.5t70 -0.5q76 0 124 2l6 -6q-2 -19 -2 -40l-7 -5q-63 2 -158 2h-45q1 -34 2 -189h64q69 0 128 2l7 -6q-3 -17 -3 -38
l-7 -5q-34 1 -126 1zM272 747l3 -6q-37 -63 -74 -135l-6 -5q-26 2 -36 1l-3 6q1 2 20 61.5t23 71.5l7 6q39 -2 66 0z" />
    <glyph glyph-name="ecircumflex" unicode="&#xea;" horiz-adv-x="354" 
d="M186 260h-63q0 -45 4 -213h57q90 1 148 4l7 -6q-2 -15 -3 -39l-7 -6h-131q-62 0 -85 -1q-29 -1 -43 -1l-6 6v19q1 32 1 96q0 255 -7 418l6 6q10 0 69 -0.5t70 -0.5q76 0 124 2l6 -6q-2 -19 -2 -40l-7 -5q-63 2 -158 2h-45q1 -34 2 -189h64q69 0 128 2l7 -6q-3 -17 -3 -38
l-7 -5q-34 1 -126 1zM219 601l-6 6q-7 19 -12.5 35t-12 33.5t-11.5 31.5q-25 -47 -50 -101l-7 -5q-5 1 -20.5 0.5t-17.5 -0.5l-4 5q34 61 63 132l6 6q37 -1 66 0l6 -6q48 -120 53 -132l-5 -6q-14 1 -48 1z" />
    <glyph glyph-name="edieresis" unicode="&#xeb;" horiz-adv-x="354" 
d="M186 260h-63q0 -45 4 -213h57q90 1 148 4l7 -6q-2 -15 -3 -39l-7 -6h-131q-62 0 -85 -1q-29 -1 -43 -1l-6 6v19q1 32 1 96q0 255 -7 418l6 6q10 0 69 -0.5t70 -0.5q76 0 124 2l6 -6q-2 -19 -2 -40l-7 -5q-63 2 -158 2h-45q1 -34 2 -189h64q69 0 128 2l7 -6q-3 -17 -3 -38
l-7 -5q-34 1 -126 1zM126 696l6 -6q-1 -30 -1 -67l-5 -6q-16 0 -54 -3l-6 6q1 31 0 67l7 6q20 0 53 3zM281 696l6 -6q-1 -30 -1 -67l-6 -6q-16 0 -55 -3l-5 6q1 32 0 67l6 6q16 0 55 3z" />
    <glyph glyph-name="igrave" unicode="&#xec;" horiz-adv-x="187" 
d="M130 6l-7 -6q-32 0 -54 -1l-6 6q0 16 0.5 52.5t0.5 67.5q0 257 -7 410l6 7q19 -1 54 1l7 -6q-1 -49 -1 -147q0 -202 7 -384zM6 738l4 6q34 -1 67 0l6 -6q6 -27 16 -65q15 -50 18 -65l-4 -6q-6 0 -10.5 -0.5t-10 -1t-11.5 -0.5l-7 6q-30 65 -68 132z" />
    <glyph glyph-name="iacute" unicode="&#xed;" horiz-adv-x="187" 
d="M130 6l-7 -6q-32 0 -54 -1l-6 6q0 16 0.5 52.5t0.5 67.5q0 257 -7 410l6 7q19 -1 54 1l7 -6q-1 -49 -1 -147q0 -202 7 -384zM189 747l3 -6q-37 -63 -74 -135l-6 -5q-26 2 -36 1l-3 6q1 2 20 61.5t23 71.5l7 6q39 -2 66 0z" />
    <glyph glyph-name="icircumflex" unicode="&#xee;" horiz-adv-x="187" 
d="M130 6l-7 -6q-32 0 -54 -1l-6 6q0 16 0.5 52.5t0.5 67.5q0 257 -7 410l6 7q19 -1 54 1l7 -6q-1 -49 -1 -147q0 -202 7 -384zM136 601l-6 6q-7 19 -12.5 35t-12 33.5t-11.5 31.5q-25 -47 -50 -101l-7 -5h-38l-4 5q34 61 63 132l6 6q37 -1 66 0l6 -6q48 -120 53 -132l-5 -6
q-14 1 -48 1z" />
    <glyph glyph-name="idieresis" unicode="&#xef;" horiz-adv-x="187" 
d="M130 6l-7 -6q-32 0 -54 -1l-6 6q0 16 0.5 52.5t0.5 67.5q0 257 -7 410l6 7q19 -1 54 1l7 -6q-1 -49 -1 -147q0 -202 7 -384zM43 696l6 -6q-1 -30 -1 -67l-5 -6q-17 0 -54 -3l-6 6q1 31 0 67l7 6q20 0 53 3zM198 696l6 -6q-1 -30 -1 -67l-6 -6q-16 0 -55 -3l-5 6
q1 32 0 67l6 6q16 0 55 3z" />
    <glyph glyph-name="eth" unicode="&#xf0;" horiz-adv-x="479" 
d="M70 -1l-6 7q1 45 0 140v120h-52l-7 6q2 25 1 36l6 6h51q0 132 -5 221l6 7q19 0 68 1t68 1q96 0 144 -29q97 -58 97 -229q0 -60 -12.5 -111t-48.5 -97t-93 -64q-43 -14 -147 -14q-5 0 -34.5 -0.5t-35.5 -0.5zM190 496l-67 -1v-49v-82v-51h35q35 1 106 1l6 -6v-37l-6 -6
q-119 1 -141 2q0 -9 0.5 -63.5t0.5 -64.5q0 -38 2 -92h61q80 0 120 32q73 57 73 212q0 141 -74 185q-37 22 -116 20z" />
    <glyph glyph-name="ntilde" unicode="&#xf1;" horiz-adv-x="479" 
d="M276 127l-164 351l3 -208l3 -156q0 -20 3 -108l-6 -6q-24 0 -45 -1l-7 6v21q1 43 1 129q0 227 -6 380l7 6q23 0 71 2l7 -5q17 -34 56 -115t48 -99l121 -262l-4 212q-1 144 -6 261l6 6q16 0 46 2l7 -6q-2 -66 -2 -124q0 -170 7 -406l-6 -7q-19 1 -37 0q-6 0 -18 -0.5
t-19 -0.5l-8 5q-1 2 -24.5 52t-33.5 71zM345 704l7 -3q-2 -16 -2 -49l-4 -9q-21 -25 -57 -25q-23 0 -51 13q-36 18 -54 18t-28 -7t-23 -25l-6 3v50q0 5 7 12.5t22 14t32 6.5q21 0 51 -13q39 -19 54 -19q29 0 52 33z" />
    <glyph glyph-name="ograve" unicode="&#xf2;" horiz-adv-x="500" 
d="M255 551q88 0 143 -64q64 -73 64 -216q0 -123 -53.5 -201.5t-158.5 -78.5q-58 0 -101.5 25.5t-66.5 68t-33.5 90t-10.5 99.5q0 120 55 198.5t162 78.5zM401 272q0 121 -47 183q-39 49 -100 49q-77 0 -116 -66t-39 -165q0 -40 7.5 -78t24 -75t48 -59.5t74.5 -22.5
q63 0 100 48q48 62 48 186zM162 738l4 6q34 -1 67 0l6 -6q6 -27 16 -65q15 -50 18 -65l-4 -6l-32 -2l-7 6q-30 65 -68 132z" />
    <glyph glyph-name="oacute" unicode="&#xf3;" horiz-adv-x="500" 
d="M255 551q88 0 143 -64q64 -73 64 -216q0 -123 -53.5 -201.5t-158.5 -78.5q-58 0 -101.5 25.5t-66.5 68t-33.5 90t-10.5 99.5q0 120 55 198.5t162 78.5zM401 272q0 121 -47 183q-39 49 -100 49q-77 0 -116 -66t-39 -165q0 -40 7.5 -78t24 -75t48 -59.5t74.5 -22.5
q63 0 100 48q48 62 48 186zM345 747l3 -6q-37 -63 -74 -135l-6 -5q-26 2 -36 1l-3 6q1 2 20 61.5t23 71.5l7 6q39 -2 66 0z" />
    <glyph glyph-name="ocircumflex" unicode="&#xf4;" horiz-adv-x="500" 
d="M255 551q88 0 143 -64q64 -73 64 -216q0 -123 -53.5 -201.5t-158.5 -78.5q-58 0 -101.5 25.5t-66.5 68t-33.5 90t-10.5 99.5q0 120 55 198.5t162 78.5zM401 272q0 121 -47 183q-39 49 -100 49q-77 0 -116 -66t-39 -165q0 -40 7.5 -78t24 -75t48 -59.5t74.5 -22.5
q63 0 100 48q48 62 48 186zM292 601l-6 6q-7 19 -12.5 35t-12 33.5t-11.5 31.5q-25 -47 -50 -101l-7 -5h-38l-4 5q34 61 63 132l6 6q37 -1 66 0l6 -6q48 -120 53 -132l-5 -6q-14 1 -48 1z" />
    <glyph glyph-name="otilde" unicode="&#xf5;" horiz-adv-x="500" 
d="M255 551q88 0 143 -64q64 -73 64 -216q0 -123 -53.5 -201.5t-158.5 -78.5q-58 0 -101.5 25.5t-66.5 68t-33.5 90t-10.5 99.5q0 120 55 198.5t162 78.5zM401 272q0 121 -47 183q-39 49 -100 49q-77 0 -116 -66t-39 -165q0 -40 7.5 -78t24 -75t48 -59.5t74.5 -22.5
q63 0 100 48q48 62 48 186zM356 704l7 -3q-2 -16 -2 -49l-4 -9q-21 -25 -57 -25q-23 0 -51 13q-36 18 -54 18t-28 -7t-23 -25l-6 3v50q0 5 7 12.5t22 14t32 6.5q21 0 51 -13q39 -19 54 -19q29 0 52 33z" />
    <glyph glyph-name="odieresis" unicode="&#xf6;" horiz-adv-x="500" 
d="M255 551q88 0 143 -64q64 -73 64 -216q0 -123 -53.5 -201.5t-158.5 -78.5q-58 0 -101.5 25.5t-66.5 68t-33.5 90t-10.5 99.5q0 120 55 198.5t162 78.5zM401 272q0 121 -47 183q-39 49 -100 49q-77 0 -116 -66t-39 -165q0 -40 7.5 -78t24 -75t48 -59.5t74.5 -22.5
q63 0 100 48q48 62 48 186zM199 696l6 -6q-1 -30 -1 -67l-5 -6q-17 0 -54 -3l-6 6q1 31 0 67l7 6q20 0 53 3zM354 696l6 -6q-1 -30 -1 -67l-6 -6q-16 0 -55 -3l-5 6q1 32 0 67l6 6q16 0 55 3z" />
    <glyph glyph-name="divide" unicode="&#xf7;" horiz-adv-x="500" 
d="M251 206q17 0 32 -12t15 -34q0 -21 -14 -33t-30 -12q-20 0 -34 12t-14 32q0 19 13 33t32 14zM251 466q29 0 41 -23t0.5 -45.5t-40.5 -22.5q-19 0 -32.5 12.5t-13.5 32.5q0 21 14.5 33.5t30.5 12.5zM500 320v-59h-500v59h500z" />
    <glyph glyph-name="oslash" unicode="&#xf8;" horiz-adv-x="500" 
d="M17 14v9q23 19 63 66q-42 77 -42 185q0 119 55 198t161 79q97 0 152 -73q28 32 52 62h9q9 -11 29 -25l-1 -9q-29 -27 -64 -71q31 -66 31 -165q0 -121 -53 -200t-159 -79q-84 0 -143 59q-23 -27 -51 -63l-9 1q-16 16 -30 26zM122 139l246 293q-40 72 -114 72
q-78 0 -116.5 -67t-38.5 -163q0 -77 23 -135zM388 384l-243 -289q40 -57 108 -57q46 0 78 25t46 65.5t19 74.5t5 69q0 57 -13 112z" />
    <glyph glyph-name="ugrave" unicode="&#xf9;" horiz-adv-x="437" 
d="M380 543l6 -7v-14q0 -27 -0.5 -97t-0.5 -96v-98q-1 -59 -3 -82t-10.5 -50.5t-26.5 -50.5q-46 -57 -128 -57q-108 0 -146 87q-18 41 -18 141v220q0 68 -1 96l6 6q29 0 55 2l6 -7q-4 -85 -4 -320q0 -23 0.5 -36.5t3 -38t9.5 -39t18 -30.5t30.5 -24t44.5 -8q70 0 96 64
q14 37 14 161q0 150 -4 270l6 6q1 0 47 2zM131 738l4 6q34 -1 67 0l6 -6q6 -27 16 -65q15 -50 18 -65l-4 -6q-6 0 -10.5 -0.5t-10 -1t-11.5 -0.5l-7 6q-30 65 -68 132z" />
    <glyph glyph-name="uacute" unicode="&#xfa;" horiz-adv-x="437" 
d="M380 543l6 -7v-14q0 -27 -0.5 -97t-0.5 -96v-98q-1 -59 -3 -82t-10.5 -50.5t-26.5 -50.5q-46 -57 -128 -57q-108 0 -146 87q-18 41 -18 141v220q0 68 -1 96l6 6q29 0 55 2l6 -7q-4 -85 -4 -320q0 -23 0.5 -36.5t3 -38t9.5 -39t18 -30.5t30.5 -24t44.5 -8q70 0 96 64
q14 37 14 161q0 150 -4 270l6 6q1 0 47 2zM314 747l3 -6q-37 -63 -74 -135l-6 -5q-26 2 -36 1l-3 6q1 2 20 61.5t23 71.5l7 6q39 -2 66 0z" />
    <glyph glyph-name="ucircumflex" unicode="&#xfb;" horiz-adv-x="437" 
d="M380 543l6 -7v-14q0 -27 -0.5 -97t-0.5 -96v-98q-1 -59 -3 -82t-10.5 -50.5t-26.5 -50.5q-46 -57 -128 -57q-108 0 -146 87q-18 41 -18 141v220q0 68 -1 96l6 6q29 0 55 2l6 -7q-4 -85 -4 -320q0 -23 0.5 -36.5t3 -38t9.5 -39t18 -30.5t30.5 -24t44.5 -8q70 0 96 64
q14 37 14 161q0 150 -4 270l6 6q1 0 47 2zM261 601l-6 6q-7 19 -12.5 35t-12 33.5t-11.5 31.5q-25 -47 -50 -101l-7 -5h-38l-4 5q34 61 63 132l6 6q37 -1 66 0l6 -6q48 -120 53 -132l-5 -6q-14 1 -48 1z" />
    <glyph glyph-name="udieresis" unicode="&#xfc;" horiz-adv-x="437" 
d="M380 543l6 -7v-14q0 -27 -0.5 -97t-0.5 -96v-98q-1 -59 -3 -82t-10.5 -50.5t-26.5 -50.5q-46 -57 -128 -57q-108 0 -146 87q-18 41 -18 141v220q0 68 -1 96l6 6q29 0 55 2l6 -7q-4 -85 -4 -320q0 -23 0.5 -36.5t3 -38t9.5 -39t18 -30.5t30.5 -24t44.5 -8q70 0 96 64
q14 37 14 161q0 150 -4 270l6 6q1 0 47 2zM170 695l6 -6q-1 -30 -1 -67l-5 -6q-16 0 -54 -3l-6 6q1 31 0 67l7 6q20 0 53 3zM325 695l6 -6q-1 -30 -1 -67l-6 -6q-16 0 -55 -3l-5 6q1 32 0 67l6 6q16 0 55 3z" />
    <glyph glyph-name="yacute" unicode="&#xfd;" horiz-adv-x="333" 
d="M263 373l-68 -149q-1 -140 2 -218l-7 -6q-25 0 -51 -1l-7 6q2 61 2 214l-66 153q-36 84 -70 161l5 7q25 1 54 4l7 -6q26 -70 39 -104l64 -158l56 127q25 59 53 133l7 6q21 -1 48 0l5 -8q-13 -27 -42 -92t-31 -69zM262 747l3 -6q-37 -63 -74 -135l-6 -5q-26 2 -36 1l-3 6
q1 2 20 61.5t23 71.5l7 6q39 -2 66 0z" />
    <glyph glyph-name="thorn" unicode="&#xfe;" horiz-adv-x="354" 
d="M116 543l7 -6v-74q18 1 41 1q71 0 106 -19q34 -19 51.5 -56.5t17.5 -82.5q0 -50 -22 -90.5t-61 -59.5q-37 -19 -131 -19q0 -70 4 -130l-7 -7q-17 1 -52 -1l-7 6q2 76 2 120q0 257 -7 410l6 7q27 0 52 1zM124 184q8 -1 24 -1q64 0 95 29q34 30 34 98q0 79 -53 100
q-22 9 -101 7q-1 -58 1 -233z" />
    <glyph glyph-name="ydieresis" unicode="&#xff;" horiz-adv-x="333" 
d="M263 373l-68 -149q-1 -140 2 -218l-7 -6q-25 0 -51 -1l-7 6q2 61 2 214l-66 153q-36 84 -70 161l5 7q25 1 54 4l7 -6q26 -70 39 -104l64 -158l56 127q25 59 53 133l7 6q21 -1 48 0l5 -8q-13 -27 -42 -92t-31 -69zM116 696l6 -6q-1 -30 -1 -67l-5 -6q-16 0 -54 -3l-6 6
q1 31 0 67l7 6q20 0 53 3zM271 696l6 -6q-1 -30 -1 -67l-6 -6q-16 0 -55 -3l-5 6q1 32 0 67l6 6q16 0 55 3z" />
    <glyph glyph-name="dotlessi" unicode="&#x131;" horiz-adv-x="187" 
d="M130 6l-7 -6q-32 0 -54 -1l-6 6q0 16 0.5 52.5t0.5 67.5q0 257 -7 410l6 7q19 -1 54 1l7 -6q-1 -49 -1 -147q0 -202 7 -384z" />
    <glyph glyph-name="Lslash" unicode="&#x141;" horiz-adv-x="396" 
d="M296 423l-2 -6q-5 -4 -42.5 -30.5t-71 -49.5t-45.5 -31q0 -205 5 -255h52q121 1 180 6l6 -6q-3 -33 -3 -47l-6 -6q-32 2 -49 2h-136q-41 1 -106 -1l-6 6v254l-66 -49l-6 2v51l3 5l69 50v42q0 161 -7 341l6 5q12 0 30 0.5t31 1.5l6 -6q-3 -150 -3 -338l155 112l6 -2v-51z
" />
    <glyph glyph-name="lslash" unicode="&#x142;" horiz-adv-x="313" 
d="M242 317l-119 -84q0 -8 0.5 -58.5t0.5 -60.5q1 -54 2 -67h33q101 2 137 5l6 -7q-2 -28 -2 -40l-7 -6q-6 0 -18.5 0.5t-22.5 0.5h-99q-29 1 -83 -1l-7 6v184l-47 -35l-8 2v44l4 9l51 36q0 147 -6 290l7 6q29 0 54 2l6 -6q-1 -62 -1 -248l114 81l9 -2q-1 -7 -1 -22
q0 -14 1 -21z" />
    <glyph glyph-name="OE" unicode="&#x152;" horiz-adv-x="750" 
d="M538 344l-69 -1q0 -172 3 -292h69q100 0 188 6l6 -6q-3 -33 -3 -48l-7 -5q-68 2 -109 2h-156q-23 0 -95 -3q-117 0 -183 39q-72 44 -105 130t-33 187q0 150 61 242q22 33 51 55.5t53 34t57.5 17t51.5 6.5t47 1q37 0 111 -2h189q4 0 28.5 1t29.5 1l6 -6q-3 -31 -3 -45
l-7 -5q-30 1 -64 1.5t-75 1t-63 0.5h-50v-18q0 -17 1 -121t1 -124h77q49 0 74 1q15 0 87 3l7 -6q-3 -25 -3 -43l-8 -6q-75 2 -165 2zM409 49q-4 574 -5 609q-89 2 -128 -8q-77 -18 -121.5 -92.5t-44.5 -190.5q0 -121 41 -206q33 -68 84 -90.5t131 -22.5q24 0 43 1z" />
    <glyph glyph-name="oe" unicode="&#x153;" horiz-adv-x="625" 
d="M445 260l-52 -1q0 -22 1 -115t1 -97h52q63 0 155 4l7 -6q-3 -27 -3 -41l-7 -6q-52 2 -89 2h-130q-52 -2 -78 -2q-96 0 -150 30q-114 64 -114 243q0 114 50 184q29 40 74 61t72 23.5t68 2.5q61 0 91 -1h107q7 0 48.5 0.5t49.5 0.5l7 -6q-3 -21 -3 -39l-7 -6q-76 3 -168 3
h-36q0 -17 0.5 -92t0.5 -96h59q62 0 135 3l6 -6q-2 -34 -2 -40l-7 -5q-58 2 -138 2zM335 46q1 26 1 79q0 49 -2 145q0 118 -3 226q-71 0 -100 -6q-59 -13 -95.5 -66t-36.5 -144q0 -63 18 -118t53 -83q21 -16 51.5 -24t52 -9t61.5 0z" />
    <glyph glyph-name="Scaron" unicode="&#x160;" 
d="M349 623l-8 -4q-42 49 -117 49q-56 0 -88.5 -33.5t-32.5 -87.5q0 -43 22.5 -71.5t80.5 -66.5q7 -5 22.5 -15t23.5 -15q30 -20 47.5 -34.5t39.5 -38.5t32 -55.5t10 -70.5q0 -78 -41 -128q-50 -64 -157 -64q-77 0 -141 36l-5 10q1 5 2 15.5t1 15.5l3 30l9 2q3 -3 9 -11
q47 -49 122 -49q66 0 100.5 40.5t34.5 97.5q0 51 -26 84t-78 69l-46 30q-35 23 -51.5 35.5t-38 35.5t-30.5 50t-9 62q0 77 46 126q49 51 139 51q72 0 127 -31l4 -9q-2 -9 -4 -31q-1 -4 -1 -12t-1 -12zM163 884l7 -6q23 -48 51 -99q26 41 61 98l7 6q15 -1 43 0l3 -6
q-8 -15 -32.5 -58.5t-33.5 -61.5l-7 -6q-7 0 -21.5 0.5t-22.5 0.5q-6 0 -20 -0.5t-21 -0.5l-6 6q-25 45 -37 67q-20 35 -28 51l3 6q40 2 54 3z" />
    <glyph glyph-name="scaron" unicode="&#x161;" horiz-adv-x="333" 
d="M278 466l-9 -4q-33 42 -89 42q-43 0 -65.5 -24t-22.5 -63q0 -32 16.5 -52t60.5 -48q3 -2 15.5 -9.5t19.5 -12.5q21 -13 34 -23t30.5 -28.5t26.5 -44.5t9 -58q0 -59 -32 -100q-41 -50 -125 -50q-58 0 -113 29l-4 8q0 4 1 12.5t2 13.5t2 15.5t1 15.5l9 3q38 -51 102 -51
q49 0 73.5 29.5t24.5 70.5q0 38 -19.5 62t-57.5 49l-35 21q-34 22 -51 35t-33.5 42t-16.5 65q0 61 37 100q40 40 109 40q56 0 102 -25l3 -8q-1 -4 -2 -12.5t-1 -13.5q0 -4 -0.5 -13t-1.5 -13zM126 743l7 -6q28 -80 36 -100q32 61 50 101l6 6q21 -1 38 0l4 -6l4 3
q0 -1 -5 -10.5t-13.5 -25t-12.5 -23.5q-1 -2 -29 -64q-6 -12 -13 -17q-6 1 -34.5 0.5t-30.5 -0.5l-6 6q-2 4 -6 14q-26 67 -47 117l5 6q28 -2 47 -1z" />
    <glyph glyph-name="Ydieresis" unicode="&#x178;" 
d="M326 490l-90 -199v-22q0 -123 5 -263l-6 -6q-32 0 -59 -1l-6 5q2 50 2 127q0 15 0.5 45.5t0.5 45.5q0 18 -0.5 38t-0.5 26l-85 204q-69 168 -87 208l4 7q5 0 60 4l7 -6q24 -67 50 -136l88 -225l76 184q46 110 68 174l7 6q27 -1 52 0l4 -7q-1 -3 -19.5 -45t-22.5 -51
q-36 -83 -48 -113zM331 850l6 -7q-2 -45 -1 -64l-6 -8q-18 0 -55 -3l-6 8q1 30 0 64l7 7q36 1 55 3zM142 850l6 -7q-2 -45 -1 -64l-6 -8q-18 0 -55 -3l-6 8q1 29 0 64l7 7q36 1 55 3z" />
    <glyph glyph-name="Zcaron" unicode="&#x17d;" 
d="M312 519l-219 -470h108q125 0 198 7l6 -7q-3 -29 -4 -44l-5 -6q-33 2 -259 2q-70 0 -127 -2l-5 7q19 35 72 152q42 88 64 132l92 198q7 14 19 40.5t19 40.5q34 73 42 90h-80q-152 -4 -196 -6l-5 6q2 21 3 44l6 6q15 0 28.5 -0.5t23.5 -1t25 -0.5h173q14 0 52 0.5t53 0.5
l4 -7q-51 -102 -88 -182zM152 884l7 -6q23 -48 51 -99q26 41 61 98l7 6q15 -1 43 0l3 -6q-8 -15 -32.5 -58.5t-33.5 -61.5l-7 -6q-7 0 -21.5 0.5t-22.5 0.5q-6 0 -20 -0.5t-21 -0.5l-6 6q-25 45 -37 67q-20 35 -28 51l3 6q40 2 54 3z" />
    <glyph glyph-name="zcaron" unicode="&#x17e;" horiz-adv-x="354" 
d="M267 393l-171 -347h78q128 2 160 4l6 -6q-1 -9 -3 -39l-6 -6q-20 1 -60 1h-147q-64 0 -106 -1l-5 7q15 25 59 119q7 15 15.5 31.5t18.5 37t16 31.5l74 149q7 15 29 59.5t31 63.5l-56 -1q-123 -3 -158 -5l-6 7q2 19 2 38l7 6q5 0 27 -0.5t37 -0.5h137q67 0 87 2l5 -8
q-19 -35 -71 -142zM136 743l7 -6q28 -80 36 -100q32 61 50 101l6 6q21 -1 38 0l4 -6l4 3q0 -1 -5 -10.5t-13.5 -25t-12.5 -23.5q-1 -2 -29 -64q-6 -12 -13 -17h-65l-6 6q-2 4 -6 14q-26 67 -47 117l5 6q28 -2 47 -1z" />
    <glyph glyph-name="florin" unicode="&#x192;" horiz-adv-x="354" 
d="M120 157l21 216q-13 -1 -50 -2l-7 6q2 10 2 35l7 6q24 -1 51 -1l6 51q4 43 7 65t11.5 48t22.5 42q33 36 82 36q14 0 38 -6l7 -8q-4 -26 -5 -43l-7 -6q-18 6 -28 6q-24 0 -43 -22q-15 -21 -28 -123l-5 -40q4 0 68 2l6 -8q-1 -15 -4 -31l-7 -8q-41 1 -65 0l-27 -280
q-1 -12 -5.5 -62.5t-7.5 -71.5q-18 -132 -115 -132q-15 0 -39 6l-7 8q4 24 5 43l7 6q16 -6 34 -6q20 0 35 22q12 19 17.5 48t12.5 100q4 38 10 104z" />
    <glyph glyph-name="circumflex" unicode="&#x2c6;" horiz-adv-x="250" 
d="M169 601l-6 6q-7 19 -12.5 35t-12 33.5t-11.5 31.5q-25 -47 -50 -101l-7 -5q-5 1 -20.5 0.5t-17.5 -0.5l-4 5q34 61 63 132l6 6q37 -1 66 0l6 -6q48 -120 53 -132l-5 -6q-14 1 -48 1z" />
    <glyph glyph-name="caron" unicode="&#x2c7;" horiz-adv-x="250" 
d="M78 743l7 -6q28 -80 36 -100q32 61 50 101l6 6q21 -1 38 0l4 -6l4 3q0 -1 -5 -10.5t-13.5 -25t-12.5 -23.5q-1 -2 -29 -64q-6 -12 -13 -17h-65l-6 6q-2 4 -6 14q-26 67 -47 117l5 6q28 -2 47 -1z" />
    <glyph glyph-name="breve" unicode="&#x2d8;" horiz-adv-x="250" 
d="M215 737l5 -6q0 -43 -9 -64q-23 -52 -86 -52q-30 0 -52 13q-43 26 -43 103l5 6q23 0 33 1l5 -6q0 -60 52 -60t52 60l5 6q14 -1 33 -1z" />
    <glyph glyph-name="dotaccent" unicode="&#x2d9;" horiz-adv-x="250" 
d="M152 696l6 -6q-1 -30 -1 -67l-6 -6q-17 0 -55 -3l-5 6q1 32 0 67l6 6q16 0 55 3z" />
    <glyph glyph-name="ring" unicode="&#x2da;" horiz-adv-x="250" 
d="M209 689q0 -41 -22.5 -66t-61.5 -25t-61.5 26t-22.5 65q0 41 24 66.5t60 25.5q35 0 59.5 -25t24.5 -67zM126 633q39 0 39 56q0 24 -10.5 40t-29.5 16q-40 0 -40 -57q0 -55 41 -55z" />
    <glyph glyph-name="ogonek" unicode="&#x2db;" horiz-adv-x="250" 
d="M150 20l12 -21q-5 -3 -13 -10.5t-19.5 -26t-11.5 -36.5t10.5 -31t33.5 -13q12 0 26 7l5 -2q-3 -16 -5 -36l-6 -6q-20 -8 -40 -8q-34 0 -60 18.5t-26 55.5q0 45 57 84q2 2 37 25z" />
    <glyph glyph-name="tilde" unicode="&#x2dc;" horiz-adv-x="250" 
d="M230 704l7 -3q-2 -16 -2 -49l-4 -9q-21 -25 -57 -25q-23 0 -51 13q-36 18 -54 18t-28 -7t-23 -25l-6 3v50q0 5 7 12.5t22 14t32 6.5q21 0 51 -13q39 -19 54 -19q29 0 52 33z" />
    <glyph glyph-name="hungarumlaut" unicode="&#x2dd;" horiz-adv-x="250" 
d="M129 747l3 -6q-46 -79 -74 -135l-6 -5q-24 2 -32 1l-4 6q2 5 21.5 63t22.5 70l6 6q29 -1 63 0zM231 747l3 -6q-37 -65 -73 -135l-6 -5q-24 2 -33 1l-4 6q27 73 44 133l7 6q29 -1 62 0z" />
    <glyph glyph-name="endash" unicode="&#x2013;" horiz-adv-x="437" 
d="M413 312l6 -5q-4 -33 -6 -49l-6 -6q-54 2 -103 2h-177q-64 0 -103 -1l-5 5q3 16 6 48l7 6q37 -2 114 -2q22 0 81 -0.5t81 -0.5q27 0 105 3z" />
    <glyph glyph-name="emdash" unicode="&#x2014;" horiz-adv-x="562" 
d="M538 312l6 -6q-4 -30 -6 -48l-6 -6q-54 3 -122 3q-22 0 -66.5 -0.5t-66.5 -0.5q-9 0 -66 0.5t-68 0.5q-35 0 -119 -2l-5 5q3 16 6 48l7 6q46 -3 221 -3q11 0 79 -0.5t81 -0.5q59 0 125 4z" />
    <glyph glyph-name="quoteleft" unicode="&#x2018;" horiz-adv-x="187" 
d="M36 504l-4 6q40 108 75 219l6 5q8 1 19.5 1.5t18.5 0.5l5 -6q-26 -109 -42 -217l-6 -6q-32 0 -72 -3z" />
    <glyph glyph-name="quoteright" unicode="&#x2019;" horiz-adv-x="187" 
d="M151 736l5 -6q-42 -108 -75 -219l-6 -6q-21 0 -39 -1l-4 6q27 114 41 217l6 5q30 1 72 4z" />
    <glyph glyph-name="quotesinglbase" unicode="&#x201a;" horiz-adv-x="187" 
d="M142 92l5 -6q-42 -108 -75 -219l-6 -6q-21 0 -39 -1l-4 6q29 132 41 217l6 5q30 1 72 4z" />
    <glyph glyph-name="quotedblleft" unicode="&#x201c;" horiz-adv-x="333" 
d="M36 504l-4 6q40 108 75 219l6 5q8 1 19.5 1.5t18.5 0.5l5 -6q-26 -109 -42 -217l-6 -6q-32 0 -72 -3zM182 504l-4 6q43 114 74 219l7 5q8 1 19.5 1.5t18.5 0.5l5 -6q-29 -124 -42 -217l-6 -6q-32 0 -72 -3z" />
    <glyph glyph-name="quotedblright" unicode="&#x201d;" horiz-adv-x="333" 
d="M151 736l5 -6q-42 -108 -75 -219l-6 -6q-21 0 -39 -1l-4 6q27 114 41 217l6 5q30 1 72 4zM297 736l5 -6q-42 -108 -75 -219l-7 -6q-20 0 -38 -1l-5 6q29 124 42 217l6 5q30 1 72 4z" />
    <glyph glyph-name="quotedblbase" unicode="&#x201e;" horiz-adv-x="333" 
d="M142 92l5 -6q-42 -108 -75 -219l-6 -6q-21 0 -39 -1l-4 6q29 132 41 217l6 5q30 1 72 4zM288 92l4 -6q-43 -114 -74 -219l-7 -6q-20 0 -38 -1l-5 6q26 109 42 217l6 5q30 1 72 4z" />
    <glyph glyph-name="dagger" unicode="&#x2020;" horiz-adv-x="354" 
d="M245 451h-37v-244q-2 -230 4 -361l-7 -6q-14 1 -56 -1l-6 6q5 135 5 336v270l-42 -1q-12 0 -36 -1t-39 -2l-6 6q2 19 2 41l6 6q26 -1 68 -1h47v46q0 119 -2 185l6 6q26 0 51 2l7 -6q-2 -49 -2 -177v-55h44q40 0 72 3l6 -8q-3 -30 -4 -39l-7 -6q-30 1 -74 1z" />
    <glyph glyph-name="daggerdbl" unicode="&#x2021;" horiz-adv-x="354" 
d="M244 451h-36q-2 -147 -1 -314l117 4l5 -5q-2 -34 -2 -42l-5 -6q-31 1 -69 1h-47v-58q0 -89 3 -184l-6 -6q-28 0 -52 -2l-7 6q0 3 0.5 9t0.5 9q1 44 1 158v67h-43q-27 0 -72 -3l-6 6q2 15 3 41l5 6q34 -1 76 -1h37q1 142 1 314l-42 -1q-12 0 -35.5 -1t-38.5 -2l-6 6
q2 38 2 42l6 6q42 -2 71 -2h43v46q0 119 -3 185l6 6q20 -1 52 2l7 -6q-1 -25 -1 -88.5t-1 -88.5v-55h44q28 0 73 3l5 -6q0 -2 -3 -41l-5 -6q-30 1 -77 1z" />
    <glyph glyph-name="bullet" unicode="&#x2022;" horiz-adv-x="333" 
d="M286 354q0 -50 -32.5 -85t-83.5 -35q-54 0 -88.5 35t-34.5 84q0 46 33.5 82.5t87.5 36.5q51 0 84.5 -35t33.5 -83z" />
    <glyph glyph-name="ellipsis" unicode="&#x2026;" horiz-adv-x="1000" 
d="M207 6l-7 -6q-27 0 -66 -3l-6 7q0 6 0.5 18t0.5 18t-0.5 18.5t-0.5 17.5l6 6q23 1 65 5l7 -6q-1 -39 1 -75zM540 6l-7 -6q-27 0 -66 -3l-6 7q0 6 0.5 18t0.5 18t-0.5 18.5t-0.5 17.5l6 6q23 1 65 5l7 -6q-1 -39 1 -75zM873 6l-7 -6q-27 0 -66 -3l-6 7q0 6 0.5 18t0.5 18
t-0.5 18.5t-0.5 17.5l6 6q23 1 65 5l7 -6q-1 -39 1 -75z" />
    <glyph glyph-name="perthousand" unicode="&#x2030;" horiz-adv-x="1062" 
d="M288 427q0 -24 -1 -45t-8.5 -57.5t-20.5 -62t-39.5 -45t-62.5 -19.5q-60 0 -94 52q-38 61 -38 180q0 40 5.5 75.5t18.5 71.5t41 57t68 21q42 0 70.5 -24t40.5 -64t16 -72t4 -68zM158 237q46 0 65 62q14 49 14 126q0 81 -16 134q-21 58 -65 58q-30 0 -49 -26
q-31 -45 -31 -160q0 -80 16 -132q18 -62 66 -62zM725 221q0 -24 -1.5 -46t-9 -58t-20 -61.5t-39 -44.5t-62.5 -19q-58 0 -93 52q-38 61 -38 180q0 40 5.5 75.5t18.5 71.5t41 57t68 21q42 0 70 -24t40 -64t16 -72t4 -68zM596 31q45 0 64 62q14 49 14 126q0 81 -16 134
q-21 58 -64 58q-32 0 -49 -26q-31 -45 -31 -160q0 -80 16 -132q18 -62 66 -62zM1038 221q0 -24 -1.5 -46t-9 -58t-20 -61.5t-39 -44.5t-62.5 -19q-59 0 -94 52q-38 61 -38 180q0 40 5.5 75.5t18.5 71.5t41 57t68 21q42 0 70.5 -24t40.5 -64t16 -72t4 -68zM908 31q46 0 65 62
q14 49 14 126q0 81 -16 134q-21 58 -65 58q-30 0 -49 -26q-31 -45 -31 -160q0 -80 16 -132q18 -62 66 -62zM409 351l-61 -154q-46 -120 -71 -190l-8 -6q-5 0 -10.5 0.5t-8.5 0.5q-4 0 -12 -0.5t-11 -0.5l-5 7q40 85 110 259l41 106q68 173 101 269l8 6q21 -1 41 0l5 -7
q-36 -80 -119 -290z" />
    <glyph glyph-name="guilsinglleft" unicode="&#x2039;" horiz-adv-x="208" 
d="M130 75l-8 6q-27 60 -44 92q-1 3 -13.5 26t-23.5 45l-11 21l1 11q53 106 84 182l8 6q2 -1 26.5 -0.5t28.5 0.5l4 -6q-39 -74 -87 -185q34 -84 95 -191l-4 -6q-28 0 -56 -1z" />
    <glyph glyph-name="guilsinglright" unicode="&#x203a;" horiz-adv-x="208" 
d="M78 464l8 -6q29 -64 44 -92q1 -3 13.5 -26t23.5 -44l11 -22v-11q-55 -109 -85 -182l-8 -6h-55l-4 6q39 74 87 185q-36 92 -95 191l4 6q28 0 56 1z" />
    <glyph glyph-name="fraction" unicode="&#x2044;" horiz-adv-x="125" 
d="M96 351l-60 -154q-38 -96 -72 -190l-7 -6q-5 0 -11 0.5t-8 0.5q-4 0 -12 -0.5t-12 -0.5l-4 7q46 98 109 259l42 106q76 197 101 269l7 6q22 -1 42 0l4 -7q-43 -97 -119 -290z" />
    <glyph glyph-name="fraction" unicode="&#x2215;" horiz-adv-x="125" 
d="M96 351l-60 -154q-38 -96 -72 -190l-7 -6q-5 0 -11 0.5t-8 0.5q-4 0 -12 -0.5t-12 -0.5l-4 7q46 98 109 259l42 106q76 197 101 269l7 6q22 -1 42 0l4 -7q-43 -97 -119 -290z" />
    <glyph glyph-name="Euro" unicode="&#x20ac;" horiz-adv-x="458" 
d="M421 523v-51q-43 34 -121 34q-70 0 -108 -43.5t-45 -118.5h235l-15 -41h-224q-1 -9 -1 -32q0 -22 1 -30h200l-15 -41h-180q7 -82 46 -123.5t105 -41.5q76 0 122 34v-51q-39 -29 -130 -29q-182 0 -206 211h-61l15 41h42q-1 7 -1 30v32h-56l15 41h46q23 209 207 209
q85 0 129 -30z" />
    <glyph glyph-name="trademark" unicode="&#x2122;" horiz-adv-x="687" 
d="M620 707v-332h-46v217l2 68l-17 -58l-72 -227h-42l-72 227l-17 57l3 -67v-217h-45v332h67l87 -273l85 273h67zM180 665v-290h-47v290h-109v42h262v-42h-106z" />
    <glyph glyph-name="minus" unicode="&#x2212;" horiz-adv-x="500" 
d="M500 321v-59h-500v59h500z" />
    <glyph glyph-name="fi" unicode="&#xfb01;" horiz-adv-x="520" 
d="M221 253h-98q0 -8 0.5 -41.5t1 -64.5t0.5 -32q1 -57 4 -108l-7 -7q-29 0 -53 -1l-6 6q2 70 2 115q0 19 -0.5 95t-1.5 144l-1 68q-2 65 -4 109l6 7q26 -1 62 -1h106q48 0 95 1l6 -6q-2 -16 -3 -40l-7 -5q-87 3 -133 3h-69q0 -38 0.5 -63t1 -60.5t0.5 -72.5h45q68 1 116 3
l7 -6q-3 -16 -4 -39l-7 -5q-21 0 -59 1zM463 6l-7 -6q-32 0 -54 -1l-6 6q0 16 0.5 52.5t0.5 67.5q0 257 -7 410l6 7q19 -1 54 1l7 -6q-1 -49 -1 -147q0 -202 7 -384z" />
    <glyph glyph-name="fl" unicode="&#xfb02;" horiz-adv-x="646" 
d="M221 253h-98q0 -8 0.5 -41.5t1 -64.5t0.5 -32q1 -57 4 -108l-7 -7q-29 0 -53 -1l-6 6q2 70 2 115q0 19 -0.5 95t-1.5 144l-1 68q-2 65 -4 109l6 7q26 -1 62 -1h106q48 0 95 1l6 -6q-2 -16 -3 -40l-7 -5q-87 3 -133 3h-69q0 -38 0.5 -63t1 -60.5t0.5 -72.5h45q68 1 116 3
l7 -6q-3 -16 -4 -39l-7 -5q-21 0 -59 1zM451 543l7 -6q-2 -76 -2 -174q0 -229 3 -316h33q101 2 137 5l6 -7q-2 -28 -2 -40l-6 -6q-6 0 -19 0.5t-23 0.5h-99q-29 1 -83 -1l-7 6q2 114 0 267q-1 127 -5 263l6 6q30 0 54 2z" />
    </font>
</defs>
</svg>
